<?xml version="1.0" encoding="utf-8"?>
<!-- Generator: Adobe Illustrator 21.0.2, SVG Export Plug-In . SVG Version: 6.00 Build 0)  -->
<svg version="1.1" xmlns="http://www.w3.org/2000/svg" xmlns:xlink="http://www.w3.org/1999/xlink" x="0px" y="0px"
	 viewBox="0 0 683.6 494.1" style="enable-background:new 0 0 683.6 494.1;" xml:space="preserve">
<style type="text/css">
	.st0{fill:#FFFFFF;}
	.st1{fill:#8B181C;}
	.st2{fill:#751114;}
	.st3{fill:#AB1F24;}
	.st4{fill:#991E21;}
	.st5{fill:#CC2028;}
	.st6{fill:#B42226;}
	.st7{fill:#EAE4DF;}
	.st8{display:none;}
	.st9{display:inline;fill:#B42226;}
	.st10{display:inline;fill:#8B181C;}
	.st11{display:inline;fill:#CC2028;}
	.st12{display:none;fill:#E9E7D5;}
	.st13{display:inline;}
	.st14{fill:#F99D43;}
	.st15{fill:#F28141;}
	.st16{display:inline;fill:#FABB4A;}
	.st17{display:inline;fill:#FFFFFF;}
	.st18{display:inline;fill:#F99D43;}
</style>
<g id="Background">
	<g>
		<rect x="-8.5" y="-8.5" class="st0" width="700.6" height="511.1"/>
		<polygon class="st1" points="-8.5,20.3 341.8,68.1 692.1,20.3 692.1,5.3 -8.5,5.3 		"/>
		<polygon class="st2" points="341.8,68.1 341.8,5.3 -8.5,5.3 -8.5,20.3 		"/>
		<polygon class="st3" points="-8.5,6.5 341.8,54.3 692.1,6.5 692.1,-8.5 -8.5,-8.5 		"/>
		<polygon class="st4" points="341.8,54.3 341.8,-8.5 -8.5,-8.5 -8.5,6.5 		"/>
		<polygon class="st5" points="-8.5,-8.5 341.8,39.3 692.1,-8.5 		"/>
		<polygon class="st6" points="341.8,39.3 341.8,-8.5 -8.5,-8.5 		"/>
		<polygon class="st6" points="692.1,426 341.8,473.8 341.8,502.6 692.1,502.6 		"/>
		<polygon class="st4" points="692.1,502.6 692.1,441 341.8,488.8 341.8,502.6 		"/>
		<polygon class="st2" points="692.1,502.6 692.1,454.8 341.8,502.6 		"/>
		<polygon class="st5" points="-8.5,426 341.8,473.8 341.8,502.6 -8.5,502.6 		"/>
		<polygon class="st3" points="-8.5,502.6 -8.5,441 341.8,488.8 341.8,502.6 		"/>
		<polygon class="st1" points="-8.5,502.6 -8.5,454.8 341.8,502.6 		"/>
		<g>
			<polygon class="st7" points="6.4,39.2 47.5,62.9 6.4,86.7 			"/>
			<polygon class="st7" points="64.1,110.4 23.1,86.7 64.1,62.9 			"/>
			<polygon class="st7" points="6.4,91.5 47.5,115.2 6.4,139 			"/>
			<polygon class="st7" points="6.4,316.4 47.5,340.2 6.4,363.9 			"/>
			<polygon class="st7" points="64.1,387.6 23.1,363.9 64.1,340.2 			"/>
			<polygon class="st7" points="72.4,91.5 113.5,115.2 72.4,139 			"/>
			<polygon class="st7" points="64.1,198.8 23.1,175 64.1,151.3 			"/>
			<polygon class="st7" points="6.4,180.7 47.5,204.4 6.4,228.1 			"/>
			<polygon class="st7" points="6.4,233 47.5,256.7 6.4,280.4 			"/>
			<polygon class="st7" points="6.4,368.1 47.5,391.9 6.4,415.6 			"/>
			<polygon class="st7" points="72.4,180.7 113.5,204.4 72.4,228.1 			"/>
			<polygon class="st7" points="72.4,296.2 113.5,320 72.4,343.7 			"/>
			<polygon class="st7" points="64.1,304.1 23.1,280.4 64.1,256.7 			"/>
		</g>
		<g>
			<polygon class="st7" points="678.9,415.6 637.8,391.9 678.9,368.1 			"/>
			<polygon class="st7" points="621.2,344.4 662.2,368.1 621.2,391.9 			"/>
			<polygon class="st7" points="678.9,363.3 637.8,339.6 678.9,315.9 			"/>
			<polygon class="st7" points="678.9,138.4 637.8,114.6 678.9,90.9 			"/>
			<polygon class="st7" points="621.2,67.2 662.2,90.9 621.2,114.6 			"/>
			<polygon class="st7" points="612.9,363.3 571.8,339.6 612.9,315.9 			"/>
			<polygon class="st7" points="621.2,256 662.2,279.8 621.2,303.5 			"/>
			<polygon class="st7" points="678.9,274.1 637.8,250.4 678.9,226.7 			"/>
			<polygon class="st7" points="678.9,221.8 637.8,198.1 678.9,174.4 			"/>
			<polygon class="st7" points="678.9,86.7 637.8,62.9 678.9,39.2 			"/>
			<polygon class="st7" points="612.9,274.1 571.8,250.4 612.9,226.7 			"/>
			<polygon class="st7" points="612.9,158.6 571.8,134.8 612.9,111.1 			"/>
			<polygon class="st7" points="621.2,150.7 662.2,174.4 621.2,198.1 			"/>
		</g>
	</g>
</g>
<g id="Object">
	<g class="st8">
		<polygon class="st9" points="113.5,103.9 226.4,103.9 226.4,155.6 113.5,155.6 138.3,129.8 		"/>
		<polygon class="st10" points="226.4,155.6 175.1,135.9 175.1,83.9 226.4,103.6 		"/>
		<polygon class="st9" points="571.8,103.9 458.9,103.9 458.9,155.6 571.8,155.6 547,129.8 		"/>
		<polygon class="st10" points="458.9,155.6 510.2,135.9 510.2,83.9 458.9,103.6 		"/>
		<rect x="175.1" y="83.9" class="st11" width="335.2" height="52"/>
	</g>
	<polygon class="st0" points="487.6,103.2 490,110.5 497.6,110.5 491.4,114.9 493.8,122.1 487.6,117.7 481.5,122.1 483.9,114.9 
		477.7,110.5 485.3,110.5 	"/>
	<polygon class="st0" points="197.5,103.2 199.8,110.5 207.4,110.5 201.3,114.9 203.6,122.1 197.5,117.7 191.3,122.1 193.7,114.9 
		187.5,110.5 195.1,110.5 	"/>
	<path class="st12" d="M376.2,401.2c0.5-0.6,0.4-1.5-0.1-2.1l-2.2-2.5c-0.4-0.5-0.5-1.2-0.3-1.7l1.3-3.1c0.3-0.7,0.1-1.6-0.6-2
		l-2.7-1.9c-0.5-0.4-0.8-1-0.7-1.6l0.5-3.3c0.1-0.8-0.3-1.5-1.1-1.8l-3.1-1.2c-0.6-0.2-1-0.8-1.1-1.4l-0.4-3.3
		c-0.1-0.8-0.7-1.4-1.5-1.5l-3.3-0.4c-0.6-0.1-1.2-0.5-1.4-1.1l-1.2-3.1c-0.3-0.7-1-1.2-1.8-1.1l-3.3,0.5c-0.6,0.1-1.3-0.2-1.6-0.7
		l-1.9-2.7c-0.5-0.6-1.3-0.9-2-0.6l-3.1,1.3c-0.6,0.2-1.3,0.1-1.7-0.3l-2.5-2.2c-0.6-0.5-1.5-0.5-2.1-0.1l-2.7,2
		c-0.5,0.4-1.2,0.4-1.8,0.2l-3-1.5c-0.7-0.3-1.6-0.2-2.1,0.5l-2.1,2.6c-0.4,0.5-1,0.7-1.7,0.6l-3.3-0.7c-0.8-0.2-1.6,0.2-1.9,1
		l-1.4,3c-0.3,0.6-0.8,1-1.5,1l-3.3,0.2c-0.8,0-1.4,0.6-1.6,1.4l-0.6,3.3c-0.1,0.6-0.6,1.1-1.2,1.3l-3.2,1c-0.8,0.2-1.2,1-1.2,1.7
		l0.3,3.3c0.1,0.6-0.3,1.2-0.8,1.6l-2.8,1.7c-0.7,0.4-1,1.2-0.7,2l1.1,3.1c0.2,0.6,0.1,1.3-0.4,1.7l-2.3,2.4
		c-0.5,0.6-0.6,1.4-0.2,2.1l1.8,2.8c0.3,0.5,0.4,1.2,0.1,1.8l-1.6,2.9c-0.4,0.7-0.2,1.6,0.3,2.1l2.5,2.2c0.5,0.4,0.7,1.1,0.5,1.7
		l-0.9,3.2c-0.2,0.8,0.1,1.6,0.8,1.9l2.9,1.6c0.6,0.3,0.9,0.9,0.9,1.5l0,3.3c0,0.8,0.5,1.5,1.3,1.7l3.2,0.8c0.6,0.1,1.1,0.6,1.2,1.2
		l0.8,3.2c0.2,0.8,0.9,1.3,1.7,1.3l3.3-0.1c0.6,0,1.2,0.3,1.5,0.9l1.2,2.3l-10.9,28.1l13.3-5.7l8.8,11.5l4.6-31.8
		c0.1,0,0.2,0.1,0.3,0.2l2.2,1.4l4.4,30.2l8.8-11.5l13.3,5.7l-11.7-30.2c0.2,0,0.3,0,0.5,0l3.3,0.2c0.8,0.1,1.5-0.4,1.7-1.2l1-3.2
		c0.2-0.6,0.7-1.1,1.3-1.2l3.3-0.6c0.8-0.1,1.4-0.8,1.4-1.6l0.2-3.3c0-0.6,0.4-1.2,1-1.5l3-1.4c0.7-0.3,1.1-1.1,1-1.9l-0.7-3.3
		c-0.1-0.6,0.1-1.3,0.6-1.7l2.6-2.1c0.6-0.5,0.8-1.4,0.5-2.1l-1.5-3c-0.3-0.6-0.2-1.2,0.2-1.8L376.2,401.2z"/>
	<g class="st8">
		<g class="st13">
			<polygon class="st14" points="327.5,425.3 312.8,463 326.1,457.3 334.3,426.4 			"/>
			<polygon class="st15" points="340.7,428.8 334.9,468.8 326.1,457.3 334.3,426.4 			"/>
		</g>
		<g class="st13">
			<polygon class="st14" points="353.9,425.3 368.6,463 355.3,457.3 347.1,426.4 			"/>
			<polygon class="st15" points="340.7,428.8 346.5,468.8 355.3,457.3 347.1,426.4 			"/>
		</g>
		<path class="st16" d="M360.6,433l-3.3-0.2c-0.6,0-1.2,0.3-1.6,0.8l-1.7,2.8c-0.4,0.7-1.2,1-2,0.7l-3.2-1.1
			c-0.6-0.2-1.3-0.1-1.7,0.4l-2.4,2.3c-0.6,0.5-1.4,0.6-2.1,0.2l-2.8-1.8c-0.5-0.3-1.2-0.4-1.8-0.1l-2.9,1.7
			c-0.7,0.4-1.5,0.3-2.1-0.3l-2.2-2.5c-0.4-0.5-1.1-0.7-1.7-0.5l-3.2,0.9c-0.8,0.2-1.6-0.1-1.9-0.8l-1.6-2.9
			c-0.3-0.6-0.9-0.9-1.5-0.9l-3.3,0.1c-0.8,0-1.5-0.5-1.7-1.3l-0.8-3.2c-0.2-0.6-0.6-1.1-1.2-1.2l-3.2-0.8c-0.8-0.2-1.3-0.9-1.3-1.7
			l0-3.3c0-0.6-0.3-1.2-0.9-1.5l-2.9-1.6c-0.7-0.4-1-1.2-0.8-1.9l0.9-3.2c0.2-0.6,0-1.3-0.5-1.7l-2.5-2.2c-0.6-0.5-0.7-1.4-0.3-2.1
			l1.6-2.9c0.3-0.6,0.3-1.2-0.1-1.8l-1.8-2.8c-0.4-0.7-0.4-1.5,0.2-2.1l2.3-2.4c0.4-0.5,0.6-1.1,0.4-1.7l-1.1-3.1
			c-0.3-0.7,0-1.6,0.7-2l2.8-1.7c0.5-0.3,0.8-0.9,0.8-1.6l-0.3-3.3c-0.1-0.8,0.4-1.5,1.2-1.7l3.2-1c0.6-0.2,1.1-0.7,1.2-1.3l0.6-3.3
			c0.1-0.8,0.8-1.4,1.6-1.4l3.3-0.2c0.6,0,1.2-0.4,1.5-1l1.4-3c0.3-0.7,1.1-1.1,1.9-1l3.3,0.7c0.6,0.1,1.3-0.1,1.7-0.6l2.1-2.6
			c0.5-0.6,1.3-0.8,2.1-0.5l3,1.5c0.6,0.3,1.2,0.2,1.8-0.2l2.7-2c0.6-0.5,1.5-0.4,2.1,0.1l2.5,2.2c0.5,0.4,1.2,0.5,1.7,0.3l3.1-1.3
			c0.7-0.3,1.6-0.1,2,0.6l1.9,2.7c0.4,0.5,1,0.8,1.6,0.7l3.3-0.5c0.8-0.1,1.5,0.3,1.8,1.1l1.2,3.1c0.2,0.6,0.8,1,1.4,1.1l3.3,0.4
			c0.8,0.1,1.4,0.7,1.5,1.5l0.4,3.3c0.1,0.6,0.5,1.2,1.1,1.4l3.1,1.2c0.7,0.3,1.2,1,1.1,1.8l-0.5,3.3c-0.1,0.6,0.2,1.3,0.7,1.6
			l2.7,1.9c0.6,0.5,0.9,1.3,0.6,2l-1.3,3.1c-0.2,0.6-0.1,1.3,0.3,1.7l2.2,2.5c0.5,0.6,0.5,1.5,0.1,2.1l-2,2.7
			c-0.4,0.5-0.4,1.2-0.2,1.8l1.5,3c0.3,0.7,0.2,1.6-0.5,2.1l-2.6,2.1c-0.5,0.4-0.7,1-0.6,1.7l0.7,3.3c0.2,0.8-0.2,1.6-1,1.9l-3,1.4
			c-0.6,0.3-1,0.8-1,1.5l-0.2,3.3c0,0.8-0.6,1.4-1.4,1.6l-3.3,0.6c-0.6,0.1-1.1,0.6-1.3,1.2l-1,3.2
			C362.1,432.6,361.4,433.1,360.6,433z"/>
		<path class="st17" d="M356.5,426.6l-2.7-0.2c-0.5,0-1,0.2-1.3,0.6l-1.4,2.3c-0.3,0.5-1,0.8-1.6,0.6l-2.5-0.9c-0.5-0.2-1,0-1.4,0.3
			l-1.9,1.9c-0.5,0.4-1.2,0.5-1.7,0.2l-2.2-1.5c-0.4-0.3-1-0.3-1.4,0l-2.3,1.3c-0.5,0.3-1.2,0.2-1.7-0.3l-1.8-2
			c-0.3-0.4-0.9-0.5-1.4-0.4l-2.6,0.7c-0.6,0.2-1.3-0.1-1.6-0.7l-1.3-2.3c-0.2-0.4-0.7-0.7-1.2-0.7l-2.7,0c-0.6,0-1.2-0.4-1.3-1
			l-0.6-2.6c-0.1-0.5-0.5-0.9-1-1l-2.6-0.6c-0.6-0.1-1-0.7-1-1.3l0-2.7c0-0.5-0.3-1-0.7-1.2l-2.4-1.2c-0.6-0.3-0.8-0.9-0.7-1.5
			l0.7-2.6c0.1-0.5,0-1-0.4-1.4l-2-1.8c-0.5-0.4-0.6-1.1-0.3-1.7l1.3-2.3c0.2-0.4,0.2-1,0-1.4l-1.5-2.2c-0.3-0.5-0.3-1.2,0.2-1.7
			l1.8-1.9c0.4-0.4,0.5-0.9,0.3-1.4l-0.9-2.5c-0.2-0.6,0-1.3,0.6-1.6l2.3-1.4c0.4-0.3,0.7-0.8,0.6-1.3l-0.2-2.7
			c-0.1-0.6,0.3-1.2,0.9-1.4l2.5-0.8c0.5-0.2,0.8-0.6,0.9-1.1l0.5-2.6c0.1-0.6,0.6-1.1,1.3-1.1l2.7-0.1c0.5,0,1-0.3,1.2-0.8l1.1-2.4
			c0.3-0.6,0.9-0.9,1.5-0.8l2.6,0.5c0.5,0.1,1-0.1,1.3-0.5l1.7-2.1c0.4-0.5,1.1-0.6,1.6-0.4l2.4,1.2c0.5,0.2,1,0.2,1.4-0.1l2.1-1.6
			c0.5-0.4,1.2-0.4,1.7,0l2,1.7c0.4,0.3,0.9,0.4,1.4,0.2l2.5-1c0.6-0.2,1.3,0,1.6,0.5l1.5,2.2c0.3,0.4,0.8,0.6,1.3,0.6l2.6-0.4
			c0.6-0.1,1.2,0.3,1.5,0.9l1,2.5c0.2,0.5,0.6,0.8,1.1,0.9l2.6,0.3c0.6,0.1,1.1,0.6,1.2,1.2l0.3,2.6c0.1,0.5,0.4,0.9,0.9,1.1
			l2.5,0.9c0.6,0.2,0.9,0.8,0.9,1.5l-0.4,2.6c-0.1,0.5,0.1,1,0.6,1.3l2.2,1.5c0.5,0.4,0.7,1,0.5,1.6l-1,2.5c-0.2,0.5-0.1,1,0.2,1.4
			l1.7,2c0.4,0.5,0.4,1.2,0.1,1.7l-1.6,2.1c-0.3,0.4-0.4,0.9-0.1,1.4l1.2,2.4c0.3,0.6,0.1,1.3-0.4,1.6l-2.1,1.7
			c-0.4,0.3-0.6,0.8-0.5,1.3l0.5,2.6c0.1,0.6-0.2,1.2-0.8,1.5l-2.4,1.1c-0.5,0.2-0.8,0.7-0.8,1.2l-0.1,2.7c0,0.6-0.5,1.2-1.1,1.3
			l-2.6,0.5c-0.5,0.1-0.9,0.5-1.1,0.9l-0.8,2.5C357.7,426.3,357.2,426.7,356.5,426.6z"/>
		<path class="st18" d="M353.3,421.6l-2.1-0.2c-0.4,0-0.8,0.2-1,0.5l-1.1,1.8c-0.3,0.4-0.8,0.6-1.3,0.5l-2-0.7
			c-0.4-0.1-0.8,0-1.1,0.3l-1.5,1.5c-0.4,0.4-0.9,0.4-1.4,0.1l-1.8-1.2c-0.3-0.2-0.8-0.2-1.1,0l-1.9,1.1c-0.4,0.3-1,0.2-1.3-0.2
			l-1.5-1.6c-0.3-0.3-0.7-0.4-1.1-0.3l-2.1,0.6c-0.5,0.1-1-0.1-1.2-0.5l-1-1.9c-0.2-0.4-0.6-0.6-1-0.6l-2.1,0c-0.5,0-1-0.3-1.1-0.8
			l-0.5-2.1c-0.1-0.4-0.4-0.7-0.8-0.8l-2.1-0.5c-0.5-0.1-0.8-0.6-0.8-1.1l0-2.1c0-0.4-0.2-0.8-0.6-1l-1.9-1
			c-0.5-0.2-0.7-0.8-0.5-1.2l0.6-2.1c0.1-0.4,0-0.8-0.3-1.1l-1.6-1.4c-0.4-0.3-0.5-0.9-0.2-1.3l1.1-1.9c0.2-0.4,0.2-0.8,0-1.1
			l-1.2-1.8c-0.3-0.4-0.2-1,0.1-1.4l1.5-1.5c0.3-0.3,0.4-0.7,0.2-1.1l-0.7-2c-0.2-0.5,0-1,0.5-1.3l1.8-1.1c0.3-0.2,0.5-0.6,0.5-1
			l-0.2-2.1c0-0.5,0.3-1,0.8-1.1l2-0.6c0.4-0.1,0.7-0.5,0.7-0.9l0.4-2.1c0.1-0.5,0.5-0.9,1-0.9l2.1-0.1c0.4,0,0.8-0.3,0.9-0.6l0.9-2
			c0.2-0.5,0.7-0.7,1.2-0.6l2.1,0.4c0.4,0.1,0.8-0.1,1.1-0.4l1.3-1.7c0.3-0.4,0.9-0.5,1.3-0.3l1.9,0.9c0.4,0.2,0.8,0.1,1.1-0.1
			l1.7-1.3c0.4-0.3,1-0.3,1.4,0l1.6,1.4c0.3,0.3,0.7,0.3,1.1,0.2l2-0.8c0.5-0.2,1,0,1.3,0.4l1.2,1.8c0.2,0.3,0.6,0.5,1,0.4l2.1-0.3
			c0.5-0.1,1,0.2,1.2,0.7l0.8,2c0.1,0.4,0.5,0.6,0.9,0.7l2.1,0.2c0.5,0.1,0.9,0.5,1,1l0.2,2.1c0,0.4,0.3,0.8,0.7,0.9l2,0.8
			c0.5,0.2,0.8,0.7,0.7,1.2l-0.3,2.1c-0.1,0.4,0.1,0.8,0.5,1l1.8,1.2c0.4,0.3,0.6,0.8,0.4,1.3l-0.8,2c-0.2,0.4-0.1,0.8,0.2,1.1
			l1.4,1.6c0.3,0.4,0.4,1,0,1.4l-1.3,1.7c-0.2,0.3-0.3,0.8-0.1,1.1l0.9,1.9c0.2,0.5,0.1,1-0.3,1.3l-1.7,1.3
			c-0.3,0.3-0.5,0.7-0.4,1.1l0.4,2.1c0.1,0.5-0.2,1-0.6,1.2l-2,0.9c-0.4,0.2-0.6,0.5-0.6,0.9l-0.1,2.1c0,0.5-0.4,0.9-0.9,1l-2.1,0.4
			c-0.4,0.1-0.7,0.4-0.9,0.8l-0.6,2.1C354.3,421.4,353.8,421.7,353.3,421.6z"/>
		<polygon class="st17" points="340.7,387.1 344,397.3 354.6,397.3 346,403.5 349.3,413.6 340.7,407.4 332.1,413.6 335.4,403.5 
			326.8,397.3 337.4,397.3 		"/>
	</g>
</g>
</svg>
