<svg id="Layer_1" data-name="Layer 1" xmlns="http://www.w3.org/2000/svg" viewBox="0 0 321 543"><defs><style>.cls-1{fill:#dedede;}.cls-2{fill:#cfd1cf;}</style></defs><title>gBoard</title><rect class="cls-1" width="321" height="543"/><path class="cls-2" d="M23.5,114.4c-2.1,2.7-5.4,3.6-8.3,5.2,1.8-4.5,3-10,1.2-14.2-.9-2-4-3.5-6.1-2.5-2.8,1.4-3.4,4.6-2.5,7.4.4,1.2,2.2.3,1.8-.9-1.4-4,4-6.5,5.4-2.2a12.3,12.3,0,0,1,0,5.4,31.77,31.77,0,0,1-3.1,9.6c-.5.9.7,2.2,1.5,1.3,3.3-3.7,8.7-4.1,11.9-8C26,114.6,24.3,113.4,23.5,114.4Z" transform="translate(0.4 2.3)"/><path class="cls-2" d="M32,95a31.46,31.46,0,0,1-3.6,3.7c-.8-1.1-1.6-2.3-2.3-3.4s-2.2.3-1.5,1.3,1.5,2.3,2.3,3.4c-1.1.9-2.2,1.8-3.4,2.6s.3,2.2,1.3,1.5,2.2-1.6,3.3-2.5a18.14,18.14,0,0,0,4.4,3.9,1,1,0,0,0,1.1-1.7,15.05,15.05,0,0,1-4-3.5,54.39,54.39,0,0,0,4.1-4.2C34.5,95.1,32.8,94,32,95Z" transform="translate(0.4 2.3)"/><path class="cls-2" d="M55.4,92c-2.4,3.8-6.2,6-10.2,7.7,1.9-4.1,4-9.6,1-13.2-3.4-4.1-7.6-3.8-8.6,1.7-.2,1.3,1.8,1.4,2,.2.6-3.3,2.3-3.1,4.5-1.1,1.5,1.4,1.5,3.6,1.3,5.5-.4,3-1.9,5.9-3.1,8.6-.4.9.7,1.5,1.4,1.2,5.1-2.1,10.3-4.6,13.4-9.5C57.7,92.1,56.1,90.9,55.4,92Z" transform="translate(0.4 2.3)"/><path class="cls-2" d="M57.1,77.7a9.57,9.57,0,0,0-4.8,4.5c-.5,1.2,1.4,1.8,1.9.7A7.24,7.24,0,0,1,58,79.6C59.2,78.9,58.3,77.1,57.1,77.7Z" transform="translate(0.4 2.3)"/><path class="cls-2" d="M60.2,80.1a11.94,11.94,0,0,0-4.7,4.2,1,1,0,0,0,1.7,1.1,11.55,11.55,0,0,1,4-3.6C62.2,81.4,61.3,79.6,60.2,80.1Z" transform="translate(0.4 2.3)"/><path class="cls-2" d="M79.4,77.2A16.62,16.62,0,0,1,75,71.6a11,11,0,0,0,.2-1.8,1.05,1.05,0,0,0-1.6-.9c-.7-1.4-1.3-2.8-1.9-4.1s-2.3-.3-1.8.9c.9,1.9,1.9,4.1,3,6.1-.4,1.5-1.4,2.6-3.3,1.8-2.3-.9-4-3.3-4.8-5.4-.5-1.2-2.3-.3-1.8.9,1.2,3,3.7,6,6.9,6.7a3.61,3.61,0,0,0,4.3-1.9,17.92,17.92,0,0,0,4.2,4.8C79.3,79.6,80.4,78,79.4,77.2Z" transform="translate(0.4 2.3)"/><path class="cls-2" d="M258.1,317.3h-.3a22.93,22.93,0,0,0-.5-7.4c-1.2-4.8-6-5.9-10.4-5.7-1.3.1-1.4,2.1-.2,2,5.9-.3,9,2.1,9.1,8.1a26.2,26.2,0,0,1-.1,2.8l-3.3-.3a1,1,0,0,0-.2,2l3.3.3c-.2,1.7-.5,3.4-.8,5.1a1.1,1.1,0,0,0-.5,1,9.15,9.15,0,0,0,.1,1.6c.1,1.2,1.8.9,2-.1.4-2.3.9-4.8,1.2-7.3h.4C259.2,319.4,259.3,317.4,258.1,317.3Z" transform="translate(0.4 2.3)"/><path class="cls-2" d="M271.4,316.4a31.33,31.33,0,0,0-6-1,1,1,0,0,0-.2,2,25.27,25.27,0,0,1,5.5.9C271.9,318.6,272.6,316.7,271.4,316.4Z" transform="translate(0.4 2.3)"/><path class="cls-2" d="M283.4,306.3c-1.2.6-2.5,1-3.7,1.7a.89.89,0,0,0-.4,1.2,9.92,9.92,0,0,0-3.1,4.6,1,1,0,0,0,.9,1.3c3.7.1,9,1.4,6.6,6.1-.7,1.3-4.4,5.6-5.2,2.3a1,1,0,0,0-2,.4c1.3,5.4,6.8,1.7,8.6-1.2a6.29,6.29,0,0,0,.6-6.2c-1.3-2.4-4.4-3.1-7-3.3a14.75,14.75,0,0,1,5.7-5.1C285.4,307.4,284.6,305.7,283.4,306.3Z" transform="translate(0.4 2.3)"/><path class="cls-2" d="M299.1,317.6c-1.5-.7-3-1.5-4.5-2.2-1.2-.5-1.8,1.4-.7,1.9,1.5.7,3,1.5,4.5,2.2C299.6,320,300.3,318.1,299.1,317.6Z" transform="translate(0.4 2.3)"/><path class="cls-2" d="M299.2,322.1a50.42,50.42,0,0,1-7.8-1c-1.3-.2-1.4,1.8-.2,2a41.66,41.66,0,0,0,7.8,1C300.3,324.1,300.5,322.1,299.2,322.1Z" transform="translate(0.4 2.3)"/><path class="cls-2" d="M319.1,329.9c-3.5-3.2-7.2-1.6-11.3-1.2,1.6-5.3,7.7-19.2-2.6-14.9-1.2.5-.3,2.3.9,1.8,1.7-.7,3.3-1.1,3.3,1.2a18.05,18.05,0,0,1-1.2,5.1c-.8,2.6-2.2,5.1-2.6,7.8a1,1,0,0,0,.9,1.1c3.6-.1,8.2-2.3,11.2.4C318.6,332.1,320.1,330.8,319.1,329.9Z" transform="translate(0.4 2.3)"/><path class="cls-2" d="M312.9,342.2c-10.5,2-21,3.6-31.4,6.1-.6.1-.8.6-.8,1.2.4,4.6,1.2,9.7-.7,14.1-2.9-3.6-4.1-8.3-7.6-11.5-.9-.9-2.4.4-1.5,1.3,3.8,3.5,4.9,8.9,8.5,12.6a1,1,0,0,0,1.6-.1c2.8-4.8,2.2-10.5,1.7-15.8,10.1-2.3,20.4-3.9,30.5-5.9A1,1,0,0,0,312.9,342.2Z" transform="translate(0.4 2.3)"/><path class="cls-2" d="M304.8,366.3c-3.8-1-7.3.7-11,1.5a28.49,28.49,0,0,0,1.7-12.2c-.1-1.5-.5-3.2-2-3.8-1.9-.8-3.9,1.8-4.9,3-.8,1,.8,2.1,1.7,1.1.5-.5,2.3-3.1,2.9-1.7s.4,3.3.3,4.8c-.2,3.1-.7,6.8-2.2,9.6-.4.8.1,1.7,1,1.5,3.9-.5,7.9-2.9,11.8-1.9C305.3,368.5,306,366.6,304.8,366.3Z" transform="translate(0.4 2.3)"/><path class="cls-2" d="M315.3,359.5c-1.7-2.3-5.4-3.3-8.1-2.7-1.1.3-3.2,1.3-3.6-.4-.4-2.1,1.5-3.3,3.5-3.7.7-.1,1.4-.1,2.1-.2,1.1-.2,1-2-.1-2a19.52,19.52,0,0,0-2.3.2l-3.5.3c-.9.1-1,1.1-.5,1.7a3.92,3.92,0,0,0-.8,1c-1.1,1.8-.5,4.9,1.6,5.5a5.11,5.11,0,0,0,3-.3,6.11,6.11,0,0,1,4.6.1c2,.8,3.8,2.3,2,4.2-.6.6-2.3,1.8-3.2,1.4-1.2-.6-1.8,1.3-.7,1.9,1.7.8,4-.7,5.2-1.7A3.65,3.65,0,0,0,315.3,359.5Z" transform="translate(0.4 2.3)"/><path class="cls-2" d="M71.5,172.6c-2.7-4-4.6-8.5-6.9-12.7-.6-1.1-2.4-.2-1.8.9,2.4,4.4,4.4,9,7.2,13.1C70.7,175,72.2,173.7,71.5,172.6Z" transform="translate(0.4 2.3)"/><path class="cls-2" d="M83.1,166.6c-2.5-4.3-5.9-7.9-8.4-12.1-.6-1.1-2.4-.2-1.8.9,2.5,4.3,5.9,7.9,8.4,12.1C82,168.5,83.8,167.7,83.1,166.6Z" transform="translate(0.4 2.3)"/><path class="cls-2" d="M99.9,158.2c-2.8-4.2-6.9-7.8-8.1-12.9-.3-1.2-2.3-.9-2,.4a1.42,1.42,0,0,0,.2.6c.5,2,1,5-1,6.2-2.3,1.3-4.2-3-4.8-4.4-.5-1.2-2.3-.3-1.8.9,1,2.6,3.7,6.9,7.1,5.5a4.72,4.72,0,0,0,2.7-3.3c1.7,2.8,4,5.2,5.9,8C98.8,160.2,100.6,159.3,99.9,158.2Z" transform="translate(0.4 2.3)"/><path class="cls-2" d="M134.8,138.7c-6.1-2-13.5,6.1-17.7,9.3-3.5,2.6-10.3,8.1-12.4,1.2-1.3-4.2-.5-9.2-3-12.9-.7-1.1-2.2.3-1.5,1.3,3.4,5,.2,20.1,10.6,16.6,3.8-1.3,7.1-4.2,10.3-6.6s8.8-8.4,13.2-7C135.4,141,136.1,139.1,134.8,138.7Z" transform="translate(0.4 2.3)"/><path class="cls-2" d="M122.9,134.9a9.88,9.88,0,0,0-3.5-2.2,11.42,11.42,0,0,1,.9-2.6c.6-1.2-1.3-1.8-1.9-.7a10,10,0,0,0-1,2.9,12.1,12.1,0,0,0-3.8,0,9.52,9.52,0,0,1,3.5-2.2c1.2-.5.3-2.3-.9-1.8-2.7,1.1-4.6,2.4-5.7,5.1-.4.9.6,1.5,1.4,1.2a10.27,10.27,0,0,1,5.2-.4,12.2,12.2,0,0,0,1.1,5.6,1,1,0,0,0,1.1.5c1.6-.2,3.7-.5,4.4-2.1C124.4,137.1,123.8,135.9,122.9,134.9Zm-3,3.5a8.75,8.75,0,0,1-.7-3.5c.5.2.9.4,1.3.6a2.87,2.87,0,0,1,1.6,1.8C122.1,138.1,120.8,138.3,119.9,138.4Z" transform="translate(0.4 2.3)"/><path class="cls-2" d="M125,167.2c-1.7-3.4-3.3-6.8-5-10.2a1,1,0,0,0-1.8.9c1.7,3.4,3.3,6.8,5,10.2C123.8,169.2,125.6,168.3,125,167.2Z" transform="translate(0.4 2.3)"/><path class="cls-2" d="M94.1,185.4a3.94,3.94,0,0,0-1.9-4.4c-2.9-1.8-6,.8-7.5,3.2a1,1,0,0,0,1.7,1.1c1-1.6,2.4-3.2,4.5-2.7,2.4.7.9,3.7.1,4.9a1,1,0,0,0,1.7,1.1c1.9-2.6,4.1-1,4.7,1.6,1,4.4-3.5,5.5-6.9,5.2a1,1,0,0,0-.2,2c5,.4,10.3-2.1,8.9-7.9C98.6,186.7,96.4,185,94.1,185.4Z" transform="translate(0.4 2.3)"/><path class="cls-2" d="M112.8,185.8c-2.4-4.1-5.5-7.6-7.9-11.7-.6-1.1-2.4-.2-1.8.9,1.2,2,2.6,3.9,3.9,5.9-3.2,3.2-6.2-1.1-7.3-4.2-.4-1.2-2.2-.3-1.8.9,1.5,4.3,6.1,9,10.2,5,1,1.4,1.9,2.8,2.8,4.2C111.7,187.8,113.5,186.9,112.8,185.8Z" transform="translate(0.4 2.3)"/><path class="cls-2" d="M138.6,161a63.81,63.81,0,0,0-3.2-5.7c.3-.6-.1-1.1-.7-1.3a17,17,0,0,1-1.8-4.4,1,1,0,0,0-2,.4,18.93,18.93,0,0,0,2.1,5.1c-1.1,1.2-2.6,2.3-4.2,1.8-1.8-.6-2.6-3.2-3.1-4.8-.4-1.2-2.3-.9-2,.4.7,2.5,1.8,5.2,4.4,6.3,2.1.9,4.2-.4,5.8-1.9a49,49,0,0,1,2.8,5C137.3,163,139.1,162.1,138.6,161Z" transform="translate(0.4 2.3)"/><path class="cls-2" d="M126.5,205.8c-.8,2.7-3.6,3.9-6.1,5.1.8-4.5.8-9.1-1.8-13.1a1.06,1.06,0,0,0-1.6-.3,7.19,7.19,0,0,0-2.8,3.4,1,1,0,0,0,1.9.7,4.74,4.74,0,0,1,1.2-1.8c2,3.9,1.6,8.4.6,12.7-.2.7.5,1.8,1.4,1.2,3.3-2.1,7.7-3.1,8.9-7.3C128.8,205.3,126.9,204.6,126.5,205.8Z" transform="translate(0.4 2.3)"/><path class="cls-2" d="M142.9,153.9a1,1,0,0,0,1.1,1.6c0,.7-.1,1.4-.1,2-.1,1.3-.4,2.6-.5,4a1,1,0,0,0,2,.2c.1-2.1.7-4.2.6-6.3C145.9,153.5,144.4,152.5,142.9,153.9Z" transform="translate(0.4 2.3)"/><path class="cls-2" d="M133,191.6a1.07,1.07,0,0,0-1.1.1c-1.3-1-2.9-1.8-4.5-.9-1.4.8-1.8,2.6-1.9,4.1,0,3.4,2.4,7.2,5.8,7.9,2.5.5,4.7-1.6,5.3-3.9C137.5,195.8,135.7,193.1,133,191.6Zm1.9,6.1a3.42,3.42,0,0,1-2.5,3.1c-2.2.4-4-2.4-4.5-4.1a4.51,4.51,0,0,1,.1-3.6c.7-1.4,2.2-.3,3,.4a.82.82,0,0,0,1.2-.1A4.79,4.79,0,0,1,134.9,197.7Z" transform="translate(0.4 2.3)"/><path class="cls-2" d="M155.7,146.4a15.67,15.67,0,0,1-4.5,2.2,17.2,17.2,0,0,0-2.2-7.8c-.5-.8-1.4-1.7-2.5-1.3s-1.4,2.3-1.6,3.4c-.2,1.3,1.8,1.4,2,.2.1-.5.2-.9.3-1.4h0a7.22,7.22,0,0,1,.9,2,15.56,15.56,0,0,1,1.1,6,1.08,1.08,0,0,0,1.2,1.1,17.77,17.77,0,0,0,6.6-2.9C158,147.1,156.7,145.6,155.7,146.4Z" transform="translate(0.4 2.3)"/><path class="cls-2" d="M151.4,217.1c-2.2-3.6-4-7.4-6.2-11-.7-1.1-2.5-.2-1.8.9.4.6.7,1.3,1.1,1.9a.6.6,0,0,0-.1.4c-.1,1.2-.1,3.2-1.1,4.1-.5.5-1.5-.7-1.8-1a40.39,40.39,0,0,1-3.8-5.4c-.7-1.1-2.5-.2-1.8.9,1.5,2.5,3.1,5.7,5.7,7.2s3.9-1.1,4.4-3.5c1.2,2.1,2.3,4.3,3.6,6.4C150.3,219,152.1,218.2,151.4,217.1Z" transform="translate(0.4 2.3)"/><path class="cls-2" d="M158.4,198.2a1,1,0,0,0-1.4-.1c-.2.2-.3.4-.5.6a.87.87,0,0,0-1.1-.9c-3.3.8-5.7,3.3-5.7,6.8a7,7,0,0,0,5.9,6.6c2.7.4,4.5-2.2,5-4.5C161.2,203.7,160.6,200.2,158.4,198.2ZM156.7,209c-2.1,1-4.5-2-4.9-3.7-.6-2.7,1.6-5,4-5.5.1,0,.2-.1.3-.1a6.12,6.12,0,0,1-.5,1.2c-.6,1.2,1.3,1.8,1.9.7a6.88,6.88,0,0,0,.3-.8C159.2,203.2,159.5,207.6,156.7,209Z" transform="translate(0.4 2.3)"/><path class="cls-2" d="M166.5,137c-2.1-2.9-6.5-1.3-9.6,0a31.91,31.91,0,0,1,1.3-4.4,3.22,3.22,0,0,0,.9-2.8,1,1,0,0,0-1.9-.1,10.84,10.84,0,0,1-.8,1.9c-.9,1-2.3,2-2.8,2.6-.8,1,.7,2,1.5,1.2a28.68,28.68,0,0,0-.5,3.1,1,1,0,0,0,1.4,1c2.3-.9,4.6-2,7.2-2,4.4,0-.7,6.3-2.1,7.2-1.1.7-.2,2.5.9,1.8C164.5,144.9,168.8,140.2,166.5,137Z" transform="translate(0.4 2.3)"/><path class="cls-2" d="M173,215.7c-.8-1-2.3.3-1.5,1.3,1.5,1.8,4.1,8.7.6,9.6-3.2.8-3.5-7.8-1.4-9,1.1-.6.3-2.4-.9-1.8-3.7,1.9-3.5,12.2,1.3,12.8C178.1,229.4,175.5,218.8,173,215.7Z" transform="translate(0.4 2.3)"/><path class="cls-2" d="M183.6,222.6c-1,8.9-3.1,17.6-3,26.6,0,1.3,2,1.4,2,.2-.1-9,2.1-17.7,3-26.6A1,1,0,1,0,183.6,222.6Z" transform="translate(0.4 2.3)"/><path class="cls-2" d="M80.9,225.5a.91.91,0,0,0,0-1.2,9.35,9.35,0,0,0-3.7-2.5c-.6-.4-1.1-.9-1.7-1.3a1,1,0,0,0-.9-.1,23.07,23.07,0,0,1-2.8-1,.9.9,0,0,0-.6-1.3c-12.4-3.9-24.7,2.8-30.1,14.2-5.7,12,1.6,24.7,13.6,28.8a21.18,21.18,0,0,0,12.7.2,1,1,0,0,0,1.8-.2c.1-.2.2-.3.2-.5a28.09,28.09,0,0,0,13.7-11.3C88.3,241.1,86.6,232.2,80.9,225.5Zm-26.5-4.2a12,12,0,0,1-1.2,2.2,1,1,0,0,0-1.5.1,12.87,12.87,0,0,1-2.1,1.9c-.2-.3-.4-.5-.7-.5A23.07,23.07,0,0,1,54.4,221.3Zm-6.7,4.8c-.3.8-.4,1.5.3,1.9-.7.1-1.4.1-2.2.2C46.4,227.5,47,226.8,47.7,226.1ZM42.6,234a26.4,26.4,0,0,1,1.8-3.8c2.4-.1,4.7-.5,7.1-.7a1,1,0,0,0,.4.5l4.5,3.1a1,1,0,0,0-.5,1,67.79,67.79,0,0,1,1.6,9,1,1,0,0,0-1.1.4,23.48,23.48,0,0,1-4.6,4.3l-.1.1c-2.5-1.5-4.7-3.2-5.2-6.4-.1-.5-.7-1-1.2-.8-1.4.5-2.7,0-4.1.3A30,30,0,0,1,42.6,234Zm.7,10.3a.94.94,0,0,0-.5,1c.1.4.2.9.3,1.3l.7,3.5a19.75,19.75,0,0,1-2.3-7.1,13,13,0,0,1,3.4-.1v.1a1.15,1.15,0,0,0-1.2.4C43.6,243.7,43.4,244,43.3,244.3Zm3.1,9.5c0-.1.1-.3,0-.5a11.13,11.13,0,0,1-.2-1.7c.9,1.5,1.8,2.9,2.6,4.4A17,17,0,0,1,46.4,253.8Zm1.4-3.4a.89.89,0,0,0,.4-1,16.55,16.55,0,0,0-.6-2.1,23.22,23.22,0,0,0,3,2.2,4.84,4.84,0,0,0-1.5,3.2C48.7,252,48.2,251.2,47.8,250.4Zm19.8,8.8a19.42,19.42,0,0,1-3.3.7,20,20,0,0,0,1.6-1.4,11.63,11.63,0,0,1,1.8-.4A4.1,4.1,0,0,0,67.6,259.2Zm-.5-12.3h0a1,1,0,0,0,.3,1.7l.6,3.1a.37.37,0,0,0-.3.1c-2.9,1.7-6,2.6-8.1,5.4-.7,1,.6,1.9,1.5,1.3a20.54,20.54,0,0,1,3.9-2l-.3.3a8.22,8.22,0,0,0-4.5,3.3,26,26,0,0,1-3.9-.5,22.82,22.82,0,0,1-6-2.4.76.76,0,0,0,.6-.8c-.1-1.6-.6-5.9,2.3-5.3a1,1,0,0,0,.6-1.8c-.1,0-.2-.1-.3-.1a22.79,22.79,0,0,0,3.9-3.7c0,.7.8,1.3,1.4.9a8.86,8.86,0,0,1,7.3-.5c1.2.4,1.9-1.5.7-1.9a11.72,11.72,0,0,0-7.4-.1,55.73,55.73,0,0,0-1.5-9.1c2.1-.6,4.1-1.6,6.2-2.1,1.2-.3.9-2.3-.4-2a55.18,55.18,0,0,0-5.3,1.8,1.76,1.76,0,0,0-.4-.5l-3.9-2.6c.5-.1.9-.4.9-.9a25.06,25.06,0,0,1,1.5-7.7.45.45,0,0,0,0-.5,22.82,22.82,0,0,1,10.7-1,4.89,4.89,0,0,0,1.8,1.4,1.14,1.14,0,0,0,.8,1.4,18.87,18.87,0,0,1,6.8,2.3,10.58,10.58,0,0,1-10-4.2c-.6-.7-2-.1-1.7.8a9.61,9.61,0,0,0,3.7,5.3,11.26,11.26,0,0,1-2.1,1.5,1,1,0,0,0-.3,1.5,1.1,1.1,0,0,0,0,.8,8.64,8.64,0,0,0,1,1.6.91.91,0,0,0-.8.4c-1.5,1.8-2.8,3.8-4.1,5.7A28.64,28.64,0,0,1,63,235c.3-1.2-1.5-1.9-1.9-.7a17.49,17.49,0,0,0-.9,6.8c.1.9,1.3,1,1.8.4a57.36,57.36,0,0,0,3.6-5,40.48,40.48,0,0,1-1.7,4.9c-.5,1.2,1.3,1.8,1.9.7a13.31,13.31,0,0,1,2.3-3,10.42,10.42,0,0,1-.5,5.2.91.91,0,0,0,.3,1c-.6,0-1.2.4-1,1.1Zm2.6-10a1,1,0,0,0-1.7-.1h0a16.45,16.45,0,0,0,.5-3.2c.8,1.3,1.6,2.7,2.3,4.1a4.85,4.85,0,0,1,.5,2.6,1.08,1.08,0,0,0-.8-.2A21.37,21.37,0,0,0,69.7,236.9Zm4.7,4.4c2,.4,4.1.7,6.1,1.3-.1,1.3-.2,2.6-.2,3.9a1,1,0,0,0,1.6.8c-.2.3-.3.6-.5.9a24.12,24.12,0,0,1-7.2,7.7l-.1-.1a8.08,8.08,0,0,0-4.9-2,1.08,1.08,0,0,0-.7-.3l.1-.1c.1,0,.1-.1.2-.2a1,1,0,0,0,1.3-1.1l-.9-4.7c2.2-2.2,4.5-5,4-8.2-.5-3.7-3.2-6.7-5-9.9h0a10.25,10.25,0,0,0,2.7-2.3h.4a1.06,1.06,0,0,0,.8-.9,14.68,14.68,0,0,0,6.6,0c.1.1.2.3.3.4a1,1,0,0,0,.5.4,19.3,19.3,0,0,1,3.9,7.5,17.1,17.1,0,0,0-1.3,2.3,1.07,1.07,0,0,0-1.1.9,28.85,28.85,0,0,0-.4,2.9c-2-.6-4.1-.9-6.1-1.3C73.3,239.1,73.1,241.1,74.4,241.3Zm7.9,5.3c.2-1.1.3-2.2.5-3.3a.85.85,0,0,0,.5-.3.6.6,0,0,0,.4-.1A27.92,27.92,0,0,1,82.3,246.6Z" transform="translate(0.4 2.3)"/><path class="cls-2" d="M57,345.1a1.17,1.17,0,0,0-1,0,85.56,85.56,0,0,0-2.6-17.9c-.2-.7-1.1-1.2-1.6-.6-2.5,2.7-4.4,5.7-6.7,8.6-.1.2-.2.3-.2.5-.1-.1-.2-.3-.4-.4a34.91,34.91,0,0,0-19.8-4l-1.8-9.4a1,1,0,0,0-1.9-.1c-7.5,17.2-9.7,45.1,9.8,55.4,1.1.6,2.3-1.1,1.1-1.7a25.29,25.29,0,0,1-7.2-5.6,20.49,20.49,0,0,0,2.5-1.1,3.59,3.59,0,0,0,2.7,3.1c2.1.6,3.6-.9,4.7-2.7,0,.2.1.3.1.5.2.6.8,1.1,1.4.7a14.91,14.91,0,0,0,3.3-2.7c1.3,3.6,6.8,3.1,6.6-2.5h0a5.67,5.67,0,0,0,2.3-2.5c.6-1.1-1.1-2.3-1.7-1.1-1.4-.3-2.7-.7-4.1-1a1,1,0,0,0-1.6-.6c-2.2,2.1-6.8,6.6-7.1.5,0-.9-1.2-1.6-1.8-.6-.3.4-.5.9-.8,1.3-3.7,1.3-5.2.4-4.5-2.6h0a.37.37,0,0,1,.1-.3,1,1,0,0,0-1.9-.4c-2.8,6.3-5.5-4.4-6.1-7a1,1,0,0,0-1.2-.8,63.35,63.35,0,0,1,4-24.3l1.3,7a1,1,0,0,0,1.2.8,34,34,0,0,1,19.3,3.6,1.11,1.11,0,0,0,1.6-.8,1.07,1.07,0,0,0,1.8.2c1.8-2.2,3.4-4.6,5.2-6.9,4.1,16.8,5.1,46.9-19.6,43-1.3-.2-1.4,1.8-.2,2,18,2.8,23.5-11.1,23.9-25.9,1,3.2,3.2,6.4,7,5.6a3.17,3.17,0,0,0,2.7-2.6c2.6,1,5.9,1.2,8.2,1.7a1,1,0,0,0,1.1-.9C74.7,344.4,61.5,336.8,57,345.1ZM41,362.2a5.66,5.66,0,0,0,2.8,2.9,3.7,3.7,0,0,1-.7,2.7c-2.2-.1-2.9-1.2-2.1-3.1a1,1,0,0,0-1.9-.7,8.15,8.15,0,0,1-3.1,3.7,5.83,5.83,0,0,1-.3-2.3h0A12.14,12.14,0,0,0,41,362.2Zm-8.9.5a3.74,3.74,0,0,0,1.7,2.5,8,8,0,0,1-2,4c-.9-.2-1.9-.5-2.8-.7a7.58,7.58,0,0,1,.1-2.6c.1-.3.2-.6.3-1v-.5A6.74,6.74,0,0,0,32.1,362.7ZM25,361a4.93,4.93,0,0,0,2.5,3.3,4.4,4.4,0,0,1-3,3.4,34.27,34.27,0,0,1-.6-5.5.37.37,0,0,0-.1-.3A4.7,4.7,0,0,0,25,361Zm-3,.7c0,.1-.1.2-.1.3a37.25,37.25,0,0,0,.4,4.7,31.11,31.11,0,0,1-4.1-10.5C19.2,358.6,20.5,360.9,22,361.7Zm43.4-12.3a8.62,8.62,0,0,0-2-3.3c-.5-.5-1.8-.4-1.7.6a5.15,5.15,0,0,0,2,3.9c.1.8-.3,1.4-1.5,1.7-2.7.6-4-2.7-4.6-5.1a.94.94,0,0,0,.8-.6c2.9-6.8,12.9-1.1,14.3,4.5C70.6,350.8,67.4,350.5,65.4,349.4Z" transform="translate(0.4 2.3)"/><path class="cls-2" d="M35.9,14.9a19.54,19.54,0,0,1,10.4,4.2c1,.8,2.1-.8,1.1-1.7-3.8-3.2-9.2-4.7-14-4.8-2.6,0-8.6,1.4-8.9,4.8-.4,4.5,8.4,4.4,13.5,3.6a39.37,39.37,0,0,0-3.5,5.5,1,1,0,0,0,.3,1.4c2.2,1.3,4.8,2.2,7,.4s3.1-5.5,5.5-6.7a1,1,0,0,0-.9-1.8c-4,2-4.3,9.4-9.7,6.8a44.16,44.16,0,0,1,4.6-6.7c.7-.9-.4-1.8-1.3-1.5a18.39,18.39,0,0,1-7,.7c-.7,0-7.2-.5-6.5-1.9C28.4,14.6,33.1,14.6,35.9,14.9Z" transform="translate(0.4 2.3)"/><path class="cls-2" d="M65.1,20c-2.5,2.5-5.3,1.4-6.5-1.7-.4-1.2-2.2-.3-1.8.9,1.6,4.4,6.2,5.6,9.6,2.3C67.3,20.6,66,19.1,65.1,20Z" transform="translate(0.4 2.3)"/><path class="cls-2" d="M47.4,346.8c-1.3,1-2.9,1.8-4.5.9a6.27,6.27,0,0,1-2.7-3.8c-.4-1.2-2.4-.8-2,.4.7,2.1,1.9,4.4,4.1,5.3s4.5.1,6.4-1.4C49.8,347.5,48.5,346,47.4,346.8Z" transform="translate(0.4 2.3)"/><path class="cls-2" d="M69,27.5c0-.6-.4-1.2-1.1-1a18.59,18.59,0,0,0-7.1,3c-.8.6-.2,1.6.6,1.7a31.59,31.59,0,0,1,7.9,2.5c.7.3,1.4-.5,1.3-1.1a20.62,20.62,0,0,1,.1-4.3A1,1,0,0,0,69,27.5Zm-.3.7c-.1,1-.2,2-.2,3a32.21,32.21,0,0,0-4.4-1.4,19.84,19.84,0,0,1,4.1-1.4A.76.76,0,0,0,68.7,28.2Z" transform="translate(0.4 2.3)"/><path class="cls-2" d="M318.8,154.6c-2.1-5.6-6.2-9.7-9.8-14.4-3.7-4.9-9.6-14.2-16.4-9.8a25.08,25.08,0,0,1-2.9-5.3,1,1,0,0,0-1.7-.1,5.5,5.5,0,0,1-.7.9c-7.9,1.9-19.3,10.6-16.6,19.5a1.1,1.1,0,0,0,1.2.8c1.8-.3,4.9,8.3,5.4,9.8a75.22,75.22,0,0,1,2.2,9.1c-.1,0-.1,0-.2.1-.9.4-.6,1.4,0,1.8-4.3.4-8.4,2.6-12,4.6a113.32,113.32,0,0,0-14.2,9.5c-5.1-6.8-7.1-15.4-10.8-23a2.18,2.18,0,0,0,.4-.5c.7-.9-.5-1.9-1.4-1.4-.6-1-1.1-2-1.8-3-2.1-3.2,12.7-7.7,14.1-8a37.07,37.07,0,0,1,15.2,0c1.3.3,1.4-1.7.2-2-10.7-2.2-24.7-.1-31.9,8.9a.91.91,0,0,0,.1,1.2,33.76,33.76,0,0,1,2.4,4.1c-2.1.8-5.1.2-6.6,2.1-1.2,1.5-.7,2.9-.1,4.6,2.3,6.4,7.7,11.4,11.1,17.2,2.8,4.7,5,11.5,11.7,10.1,6.9-1.4,13.9-7.8,18.7-13,1.7,2.5,4.9,2.5,7.8,1.6,3.9-1.1,4.8-4.4,5.7-7.8,1.4-5,15.9-4.9,19.9-5.6a69.81,69.81,0,0,0,7.8-2.3,5.92,5.92,0,0,0,2.9-1.3C320.4,161.1,319.5,156.5,318.8,154.6Zm-46.3-10.5c-1.5-7.1,7.4-13.9,14-16.1a.93.93,0,0,0,1.3,0c.2-.2.4-.3.5-.5a.37.37,0,0,0,.3-.1,33.36,33.36,0,0,0,2.5,4c-.3.7.4,1.4,1.1,1.4,1.3,1.7,2.7,3.3,4,4.8,4.1,5,8.7,10.1,11.3,16.1,3,6.9-7.3,7.6-11.9,8.3s-9.8.7-14.3,2.1a70.74,70.74,0,0,0-3.9-13.4C276.8,149,274.8,144.7,272.5,144.1Zm45,15.6c0,2.2-1.2,2.3-2.9,2.8a81.2,81.2,0,0,1-9.7,2.5c-4.3.6-8.6,1-12.8,2.3-1.8.5-4.8,1.6-5.6,3.5a16.81,16.81,0,0,0-.9,3.2c-.9,3.5-8,7.4-9.9,2.1a1,1,0,0,0-1.6-.3,53.1,53.1,0,0,1-15.6,12.3c-8.2,4.1-10-4.2-13.7-9.7-2.9-4.3-6.1-8.4-8.7-12.9-1.8-3.1-2.3-5.1,1.8-5.9a26.81,26.81,0,0,0,2.7-.7c3.8,8,6.1,16.9,11.6,23.9a1.07,1.07,0,0,0,1.4.1c4-3,8.1-5.9,12.4-8.5s9.8-6,15.1-5.9a1.08,1.08,0,0,0,1.1-1.2c-.1-.4-.2-.9-.3-1.3,5.8-2,12.8-1.7,18.7-2.8,3.9-.8,9.9-2.2,9.7-7.2-.2-5.2-5.1-10.5-8.1-14.3-2.5-3.2-5.7-6.4-8.3-9.8,6.1-3.6,11.6,7.1,14.9,11.1a59,59,0,0,1,7.2,10A15.28,15.28,0,0,1,317.5,159.7Z" transform="translate(0.4 2.3)"/><path class="cls-2" d="M180.2,294.9c-3.2-1.3-7.5-.1-10.7.5a.37.37,0,0,0-.3.1c-.2-.5-.3-.9-.4-1.1-.6-2.2-1.3-4.5-2-6.7-2.2-7.3-4.1-14.6-6.5-21.9-.4-1.2-2.2-.3-1.8.9,2.7,7.9,4.8,16,7.2,24,.3,1,.6,3.2,1.1,5.3-5.3,1.1-10.6,2.6-15.9,4.1-2.8-3.4-2.7-9.1-3.3-13.2-.6-3.9-1.5-8-4.4-10.9-.9-.9-2.4.4-1.5,1.3,6,6.1,2.2,16.9,7,23.4-5,1.3-10.1,2.3-15.3,3.2-1.1-6.2-2-12.4-4.1-18.3a.35.35,0,0,0-.1-.2,1.42,1.42,0,0,0,.6-.2c9.1-9.1,18.8-17.7,28.4-26.4.1.1.3.1.4.2a13.63,13.63,0,0,0,2.4,2.4l.2.2c.9.8,2-.6,1.3-1.5a9.47,9.47,0,0,0-2.7-2.6.35.35,0,0,1-.1-.2,1,1,0,0,0-.4-1.5c2.3-1.2,4.8-2.2,7.1-3.3-1.5,3-2.6,6.1-3.9,9.1-.5,1.2,1.4,1.8,1.9.7,1.7-3.9,3-7.9,5.3-11.5a1.06,1.06,0,0,0-1.3-1.5c-4.4,2.3-9.2,3.9-13.5,6.7a1,1,0,0,0,.4,1.9c.2,0,.5.1.7.1-9.1,8.2-18.2,16.3-26.8,24.9-1.1-1.2-2.5-2.3-3.2-3.8a1,1,0,0,0-1.6-.3c-6.6,6.6-11.2,17.1-20.2,20.6-1.2.5-.3,2.3.9,1.8,4.2-1.6,7.4-4.7,10.4-8.2l2.6,13.7a105.63,105.63,0,0,0-11.4,2.9c.5-1.7-.1-3.8-1.4-5.7a1,1,0,0,0-1.7-.1c-.1.1-.1.2-.2.4-5.7-12.9-2.5-28.5-7.6-41.7-.5-1.2-2.3-.3-1.8.9,5.3,13.7,1.6,29.8,8.2,43-.4,1.2-.1,2.1,1.8,3.2a4.13,4.13,0,0,1-.7,1.1,1,1,0,0,0,.9,1.8,97.23,97.23,0,0,1,14.3-3.9l.1.6a.52.52,0,0,0,.2.4,17.26,17.26,0,0,0,1.1,3.2c.5,1.2,2.3.3,1.8-.9a26.54,26.54,0,0,1-1.2-3.7c3.8-.7,7.5-1.3,11.3-1.9.4,1.8,1.1,3.7,3.2,3.4,1.3-.2.9-2.1-.4-2-.4.1-.7-.8-.9-1.7a136.1,136.1,0,0,0,14.4-3,3.09,3.09,0,0,1,.8-.2,9,9,0,0,0,3.2,4.9c1,.8,2.2-.9,1.1-1.7a6.38,6.38,0,0,1-2.3-3.5,1,1,0,0,0,.6-.5q6.9-1.95,13.8-3.6c.5-.1,1.1-.3,1.8-.4a7.5,7.5,0,0,0,1.1,2.2c0,.2.1.3.1.5.2,1.3,2.2.9,2-.4a7.62,7.62,0,0,1-.2-3v-.1c3.2-.8,6.7-1.3,9.2-.3C180.7,297.3,181.4,295.4,180.2,294.9Zm-52.5-8.6c2,5.7,2.8,11.8,3.9,17.8-3.8.6-7.6,1.3-11.3,2-.1-.3-.1-.5-.2-.8l-2.6-13.7a.85.85,0,0,0-.3-.5c2.7-3.4,5.2-7,8-10,1,1.4,2.4,2.5,3.4,3.8h0A1,1,0,0,0,127.7,286.3Z" transform="translate(0.4 2.3)"/><path class="cls-2" d="M188.9,287.2a23,23,0,0,1-1,3.5,28.76,28.76,0,0,0-2.7-2.2,1,1,0,0,0-1.1,1.7,24.84,24.84,0,0,1,3,2.5A24,24,0,0,1,186,295c-.6,1.1,1.1,2.3,1.7,1.1.3-.6.6-1.3.9-1.9a6.47,6.47,0,0,1,.8.9c.9.9,2.4-.4,1.5-1.3l-1.5-1.5a24.28,24.28,0,0,0,1.4-4.8C191.2,286.1,189.2,286,188.9,287.2Z" transform="translate(0.4 2.3)"/><path class="cls-2" d="M178.9,78.4c-.1-.1-.2-.1-.3-.2a1,1,0,0,0-.9-.9,13.13,13.13,0,0,0-7.9,2.6l-.1.1c-5.1-.9-8.9-3.3-11.2-8.5-2.1-4.8-2.6-10.5-3.5-15.6,3.3-2.7,6.3-6,5.7-9.7-.8-4.5-8.6-5.4-12-6.1-6.5-1.2-15.6-.6-21.2-4.4a1,1,0,0,0-1.1,1.7c3.6,2.4,8.6,2.8,12.8,3.4,5.6.8,11.6,1.2,16.9,3.4,5.7,2.4,1,7.3-2.9,10.5-6-1-11.3-3.8-16.9-6.1L133,45.9c-1-.8-2.1.9-1.1,1.7l1.5,1.2a.91.91,0,0,0,.4,1c1.2.7,2.4,1.5,3.6,2.3a41.7,41.7,0,0,0,10.4,6.6c-6.3,4.4-14.3,8.8-21.7,9.2a1.08,1.08,0,0,0-1,1.3c-4-.8-7.9-2.4-11.9-3.3-5.7-1.2-11.4-.3-17.1-1.8a79.46,79.46,0,0,1,10.4-14c4.5-5,10.3-10.6,17.1-11.9,1.3-.2.9-2.2-.4-2-6.4,1.2-11.7,5.9-16.2,10.3A75.65,75.65,0,0,0,93.7,64a1,1,0,0,0,.5,1.5,38.28,38.28,0,0,0,9.5,1.4v.2a18.27,18.27,0,0,1,1.6,6.4c0-.4-.2,2.9.4,3.6,1.9,2.2,5,3.7,7.6,4.9,5.8,2.8,12.3,2.6,18.4,1.3,6.3-1.2,19.2-3,21.6-10.4.7,0,1.4-.6,1-1.4-1.7-4.1-2.3-8.5-3.9-12.6.7-.5,1.5-1,2.4-1.6.9,1.1.9,2.9,1.2,4.9.4,2.3.9,4.6,1.5,6.8,1.7,6.4,5.5,10.2,10.9,12,1,5,4.7,7.8,9,10,.8.4,1.6-.7,1.2-1.4a8.64,8.64,0,0,0-1-1.6c.4.2.9.5,1.3.7a1,1,0,0,0,1.3-1.1,8.82,8.82,0,0,0-2-3.7c.5-.3.9-.5,1.4-.8a1,1,0,0,0-.1-1.8A5,5,0,0,0,178,80c.2-.1.3-.1.5-.2C179.6,79.9,179.5,78.8,178.9,78.4Zm-27.1-7.6c-.2,8.4-15.6,9.9-21.7,11.1a27.39,27.39,0,0,1-16-1.5c-2-.8-6.4-2.9-6.6-5.4a25.18,25.18,0,0,0-1.6-7.7,43.57,43.57,0,0,1,8,.9c5.3,1.2,10.4,3.7,15.9,3.6,1.3,0,1.4-2,.2-2a9.7,9.7,0,0,1-1.7-.1c7.3-1.1,14.6-5.3,20.6-9.3,1.3,3.3,1.9,6.8,3,10.1A.37.37,0,0,1,151.8,70.8Zm-1.7-13.7c-.1.1-.3.2-.4.3a32,32,0,0,1-5.1-2.9,33.13,33.13,0,0,0,6.1,1.9.37.37,0,0,1,.3.1Zm21.4,26h.2a1.38,1.38,0,0,0,.4.3l1.2.6a1.27,1.27,0,0,0,.1.6,10.63,10.63,0,0,0,.9,1.1.1.1,0,0,0-.1.1A22.94,22.94,0,0,0,171.5,83.1Zm-1.4,1.4a14.85,14.85,0,0,1,2.8,2.8A8.33,8.33,0,0,1,170.1,84.5Zm5.1-2.3c-.1.1-.1.3-.2.5a.1.1,0,0,0-.1.1,9.5,9.5,0,0,0-1.7-1v-.2c.9-.1,1.8-.3,2.8-.5A10.48,10.48,0,0,0,175.2,82.2Z" transform="translate(0.4 2.3)"/><path class="cls-2" d="M56.6,123.8a1,1,0,0,0-1.3-.5,9.8,9.8,0,0,0-4.4,8.4c-1.5-2.4-3.2-4.7-5.5-5.5-3.8-1.3-5.8,2.9-5.8,6.1.2,8,11.2,9.9,17.3,11.4H57v.4a1,1,0,0,0,1.8.4,5.26,5.26,0,0,0,.4-1.8.76.76,0,0,0-.3-.8c.1-1.7.4-3.5.6-5.1C59.9,132.7,58.3,127.5,56.6,123.8Zm.8,13.8c-.1,1.3-.4,2.7-.4,4.1-4.5-1.1-9.3-2.4-13.2-4.9-3.2-2.1-2.4-11,1.8-8,2.7,1.9,4.3,5.5,6,8.3.6.9,2.2.5,1.9-.6-1-3.6-1.1-8,1.8-10.6A24.85,24.85,0,0,1,57.4,137.6Z" transform="translate(0.4 2.3)"/><path class="cls-2" d="M77.9,118.2a1.06,1.06,0,0,0-1.6-.3,11.24,11.24,0,0,0-4.4,6.7c-.7-1-1.4-2-2.2-3a1,1,0,0,0-1.4-.1c-5.9,4.4-.8,10.2,4.4,12.1a1,1,0,0,0,.7-1.9c-3.5-1.3-7.7-4.8-4.5-8a15.3,15.3,0,0,1,2.9,5.1,1,1,0,0,0,2-.4,8.86,8.86,0,0,1,2.9-8.2c2.1,4.5-.4,10-1.6,14.6-.3,1.2,1.6,1.9,1.9.7C78.4,130,81.4,123.4,77.9,118.2Z" transform="translate(0.4 2.3)"/><path class="cls-2" d="M40.7,181.1c-1.3.2-.9,2.2.4,2,1.6-.2,5.3,0,2.8,2.4a6.19,6.19,0,0,1-4.1,1.4,1,1,0,0,0-.6,1.6,19.57,19.57,0,0,1,2,3,15.44,15.44,0,0,1-5-3.9,1,1,0,0,0-1.6.1,19.92,19.92,0,0,1-3.8,5.2c-.2-4-3.5-5.5-7-7.7,1.9-.7,4.2-1.5,5.7-1a1.09,1.09,0,0,0,1.3-.6.93.93,0,0,0,.9-.7c.4-1.3.7-2.6,1-3.9a26.23,26.23,0,0,1,1.9-4.6,16.38,16.38,0,0,1,3.5,6.8,1,1,0,0,0,2-.4,18.45,18.45,0,0,0-4.9-8.7,1,1,0,0,0-1.6.1l-1.2,2.1a1.07,1.07,0,0,0-1.1.9c-.2,1.2-.4,2.4-.6,3.5a23.69,23.69,0,0,0-.9,3.6c-2.7-.7-6,1.1-8.5,1.7a1,1,0,0,0-.4,1.8c3.4,2.5,8.8,3.6,7.7,9-.2.7.5,1.8,1.4,1.2a17.52,17.52,0,0,0,5.6-5.9,14.91,14.91,0,0,0,7.8,4.4c.9.2,1.3-1,.8-1.7-1-1.3-1.7-2.7-2.6-4,2.5-.6,4.8-2,5.2-4.7C47.3,180.7,42.6,180.8,40.7,181.1Z" transform="translate(0.4 2.3)"/><path class="cls-2" d="M285.2,102a11,11,0,0,0-4.5-3.1c-1.2-.5-1.8,1.4-.7,1.9a8.16,8.16,0,0,1,2.6,1.4c-1.7.6-3.3,1.3-5,1.8a1,1,0,0,0-.7,1.4,11.24,11.24,0,0,1,.4,3.2,13.29,13.29,0,0,0-4.8-2.3c-1.5-.3-3.3.7-4.9,1.7a20.61,20.61,0,0,0,1.1-5.6c0-.5-.4-1.1-.9-1.1a9.55,9.55,0,0,1-5.3-1.7,10.94,10.94,0,0,1,6.2.3.45.45,0,0,0,.5,0,1,1,0,0,0,2-.1,16.07,16.07,0,0,1,3.3-8.2c.4,1,.7,2,1.1,3a12.4,12.4,0,0,1,1.1,4.6,1,1,0,0,0,2,.2c.2-3.3-1.8-7.1-3-10.2a1,1,0,0,0-1.6-.3,17.91,17.91,0,0,0-4.8,9.1.1.1,0,0,1-.1-.1,13.24,13.24,0,0,0-9.2.1c-.7.2-1.2,1-.6,1.6a10.51,10.51,0,0,0,6.9,3.5,23,23,0,0,1-1.9,6.8c-.4.8.6,1.6,1.4,1.2a49.22,49.22,0,0,1,5.6-2.9c1.7-.6,4.8,2.1,6.1,2.9a1,1,0,0,0,1.5-1c-.2-1.6,0-3.1-.3-4.6,1.9-.6,3.7-1.5,5.7-2A.89.89,0,0,0,285.2,102Z" transform="translate(0.4 2.3)"/><path class="cls-2" d="M307.7,205.9a26.42,26.42,0,0,0-6.3.2c-1.3.2-.9,2.1.4,2a27.48,27.48,0,0,1,4.1-.2,6.46,6.46,0,0,1-5.5,2.1c-.9,0-1.6,1.3-.6,1.8a10.36,10.36,0,0,1,4.2,4.1,22.44,22.44,0,0,1-6.1-1.8,1,1,0,0,0-1.2.4c-1.3,2-2.2,4.2-3.4,6.3-.3-2.3-.6-4.6-1.9-6.5s-4-2.2-6.4-2.1a5.38,5.38,0,0,1,5.3-1.9h.3c.2.9,1.6,1.2,1.9.2a53.51,53.51,0,0,0,1.1-5.5.94.94,0,0,0-.5-1l.3-3.3a33.51,33.51,0,0,1,5.9,6c.8,1,2.3-.3,1.5-1.3a41.47,41.47,0,0,0-7.7-7.4,1.07,1.07,0,0,0-1.6.7c-.3,3.2-.5,6.5-.7,9.7-.1,0-.1-.1-.2-.1-3.9-.2-6.9.9-8.4,4.6a1,1,0,0,0,1.1,1.3c2.6-.2,5.8-.5,7.2,2.3,1,2.1,1,5,1.3,7.3.1.9,1.3,1,1.8.4.6-.8,4.3-8,5-7.7a19.21,19.21,0,0,0,7.1,1.5c.6,0,1.3-.5,1.1-1.2a12.31,12.31,0,0,0-3.5-5.2,8.67,8.67,0,0,0,5.4-4.1A1.35,1.35,0,0,0,307.7,205.9Z" transform="translate(0.4 2.3)"/><path class="cls-2" d="M157.7,330.1a6.29,6.29,0,0,0-6.1-1.7c2.7-3.6,3.7-7.9-2.1-10a9.29,9.29,0,0,0-12,5.3c-4.2,0-7.9,2.9-9.6,6.7-2.7-1.4-6.7-1.5-9.3.5-10.2,7.6,3.9,21.3,13.2,13.9,1-.8-.3-2.3-1.3-1.5-6.8,5.5-18.2-3.8-11.2-10.4,1.8-1.7,5.6-1.8,7.9-.6a9.82,9.82,0,0,0,.3,6.1,1,1,0,0,0,1.6.3c2.6-2.9,2.2-5.4.4-7.1a9.55,9.55,0,0,1,7.4-5.8,14.92,14.92,0,0,0-.2,2.1c0,.9,1.3,1.6,1.8.6a12.71,12.71,0,0,1,1.8-2.7,1,1,0,0,0-.3-1.7c-.2,0-.3-.1-.5-.1,1.3-2.7,4.1-4.2,7.8-3.9,2,.1,4.2,1.1,4.7,3.2.7,2.9-3.2,5.7-5.1,7.2-.9.7.1,2.3,1.1,1.6,6.3-3.9,12.7,1.1,8.4,7.8a12.94,12.94,0,0,1-3.3,3.3l-.1.1c-.5-.9-1.2-1.8-1.8-2.7-1.2-1.8-3.6,1.4-4.1,2.3-1.4,2.2.5,3.7,2.5,3.9a3.33,3.33,0,0,0,1.4-.1c-1.8,3.6-12.5,2.9-15.9.9-1.1-.6-2.2,1-1.1,1.7a17.06,17.06,0,0,0,5.2,2l3.2,16.5c.2,1.3,2.2.9,2-.4l-3-15.8a24.37,24.37,0,0,0,2.7.1h.3c1,6.1,1.6,14.8,8.9,16,1.3.2,1.4-1.8.2-2-5.9-1-6.4-9.2-7.1-14.3,2.9-.6,6.6-1.9,7.3-4.3a4.68,4.68,0,0,0,.2-1.6,18.51,18.51,0,0,0,4.9-5.3A8.58,8.58,0,0,0,157.7,330.1Zm-8.5,13.2c.5-1.1.8-1.3,1-.8a6,6,0,0,1,.9,1.8A2.57,2.57,0,0,1,149.2,343.3Z" transform="translate(0.4 2.3)"/><path class="cls-2" d="M252.8,363.4a14.26,14.26,0,0,0-8.4.6,30.86,30.86,0,0,1,2.8-7.1c.6-1.1-1.1-2.3-1.7-1.1a33.74,33.74,0,0,0-3.5,9.8,1,1,0,0,0,1.4,1,13.57,13.57,0,0,1,8.6-1.3C253.3,365.6,254,363.7,252.8,363.4Z" transform="translate(0.4 2.3)"/><path class="cls-2" d="M129,401.1a13.68,13.68,0,0,1-3.5.1,14.69,14.69,0,0,1,2.2-4.1c.9-.9-.4-2.4-1.3-1.5-1.6,1.7-2.4,4-3.3,6.1a1,1,0,0,0,.9,1.3,19.53,19.53,0,0,0,5.4,0A1,1,0,0,0,129,401.1Z" transform="translate(0.4 2.3)"/><path class="cls-2" d="M249.4,224.2c-1.5-2-3.4-2.9-5-2.6a4.85,4.85,0,0,0,0-1.7c.6.7,2.1-.1,1.6-1.2-3.4-8.3-9.1-15.3-13.7-22.9-5.9-9.8-6.3-20.8-9.5-31.4-.3-1-1.9-1.1-2,.1-.8,9.3,1,18.8-.9,28-2.7-13-1.2-26.5-4.9-39.3-.2-.7-1.4-1.2-1.8-.4-8.8,16.3-5.7,35.4-9.6,52.9-4.1-20,1.5-40.4,1.7-60.6,0-.9-1.3-1.6-1.8-.6-4.7,8.2-7.2,17.1-8.8,26.2.6-6.4.7-12.7-.8-19.1-.2-.8-1.4-1.2-1.8-.4-4.9,9.2-7.2,19.3-8.9,29.5a120.52,120.52,0,0,0,0-15.9c-.1-1.1-1.6-.9-1.9-.1-4.2,9-4.1,19-6,28.5-.1-4.2.1-8.4,0-12.6-.1-3.8.6-10.1-1.9-13.4-.8-1-2.3.3-1.5,1.3,1.1,1.4,1,4.1,1.2,5.8.3,3.2.3,6.4.3,9.6.1,5.3-.2,10.6.3,15.8.1,1,1.6,1,1.9.1,3.3-9.8,2.7-20.5,5.9-30.2.2,9.3-1,18.7-1.1,28a1,1,0,0,0,2,.2c2.6-14.5,3.7-29.6,10.1-43,2.6,16.4-4.1,32.8-3.2,49.3.1,1,1.7,1.6,1.9.4,4.1-18.2,3.7-38.3,12-55.3-.9,20.3-6.1,40.7-.6,60.8a1,1,0,0,0,1.9.1c5.1-17.5,1.4-37.3,9.3-54,3.1,13.3,1.4,27.3,5.1,40.5a1,1,0,0,0,1.9.1c2.8-8.1,1.9-16.6,1.8-25,1.6,7.5,2.8,14.9,6.3,21.9,4.2,8.3,10.5,15.4,14.4,23.8a1,1,0,0,0-.5-.4c-2.7-2-5.5-.2-7.4,2,0-.1-.1-.1-.1-.2a1,1,0,0,0-1.2-.8,8.92,8.92,0,0,0-6.5,8.8,6.38,6.38,0,0,0,1,3.2c0,.1-.1.2-.1.4-.7,2.5,1.1,4.8,3.5,5.5,2.9.8,6.4-1.3,8.1-3.5.8-1-.9-2.1-1.7-1.1-1.6,2.1-7.8,4.5-8.1.4a5.88,5.88,0,0,0,4.4.5,1.06,1.06,0,0,0,.8-.9c0-2-.3-4.9-2.9-4.8a3.61,3.61,0,0,0-2.8,1.5,4.84,4.84,0,0,1-.3-1.8,6.43,6.43,0,0,1,4-5.8,4.18,4.18,0,0,0,.8,1.2,1,1,0,0,0,1.6-.1c1.1-1.5,2.6-3.7,4.8-3.2,2,.4,1.7,2.8,1.1,4.6a5.76,5.76,0,0,0-1.1,2.5c-.2,1,1.2,2,1.8.9a16.27,16.27,0,0,0,1.1-2.3c1.2-1.2,2.9-.6,4.3,1.5,2.2,3.4.2,6.1-3.4,6.9a1,1,0,0,0,.4,2C250,233.3,252.7,228.8,249.4,224.2Zm-15.7,6.3a3.79,3.79,0,0,1-2.6-.7,9.43,9.43,0,0,1,1-1C233.3,228,233.6,229.4,233.7,230.5Z" transform="translate(0.4 2.3)"/><path class="cls-2" d="M65,279.3c-.5-.7-1.7-.2-1.8.6a51,51,0,0,0,.4,7.8A47.84,47.84,0,0,0,58,277.6a1,1,0,0,0-1.8.6,33.78,33.78,0,0,0,.6,7.8,23.29,23.29,0,0,0-5.1-5.3c-.7-.6-1.6.2-1.5,1a39.16,39.16,0,0,0,2.1,8.5,46.09,46.09,0,0,0-5.4-6.3,1,1,0,0,0-1.7.8,55.42,55.42,0,0,0,3.6,12.2,23,23,0,0,0-6.6-3.9,1,1,0,0,0-1.3,1.1c.7,5.9,3.8,11.1,7.4,15.9l-4.1-3.2c-2-1.5-6.8-6-9.7-4.8-1.2.5-.3,2.3.9,1.8,1.8-.7,8.1,5,9.5,6,3.4,2.6,6.8,5.3,9.9,8.1.9.8,2.3-.3,1.5-1.3-5.1-6.3-11.5-12.9-13.1-21.1a26,26,0,0,1,8.2,6.6A93.26,93.26,0,0,0,60,315.3a1,1,0,0,0,1.6-1.1A86.73,86.73,0,0,0,53.1,301a62.07,62.07,0,0,1-5.2-13.4c6.1,7.1,10.1,15.7,14.7,23.8.6,1.1,2.4.3,1.8-.9-4.2-8.8-9.8-17-11.8-26.7,5.7,5.6,8.1,14.6,10.9,21.8.4,1,2.2.4,1.9-.6,0-.1-.1-.2-.1-.3h0c-2.5-7.7-6.6-15.3-7.1-23.4,4.1,6.5,6,14.1,8.3,21.4a1,1,0,0,0,2-.4c-1.3-6.4-3-12.6-3.3-19.1,5.5,9.3,9.4,21.6,8.4,32.1a1,1,0,0,0,2,.2C76.8,303.5,71.7,289.3,65,279.3Z" transform="translate(0.4 2.3)"/><path class="cls-2" d="M210.1,70.6c-10.6,5.1-18.2,13.7-26.1,22.1-4.4,4.7-9,9-14.8,12.2-6.1,3.3-13.1,4.8-19.8,6.4-4.4,1-8.7,2.4-13.3,2.1s-8.4-3.3-11.9-6-7.1-6.4-12-5.7-8.4,4-11.3,7.9c-.8,1,.9,2.2,1.7,1.1,2.3-3.2,4.8-5.8,8.7-6.9,4.2-1.2,7.7,1.9,10.7,4.3a39.86,39.86,0,0,0,9.5,6.2c7.2,3,16.1-.6,23.2-2.4,11.2-2.8,20.2-7.4,28.4-15.6,8.8-8.8,16.3-18.5,27.8-24C212.1,71.9,211.2,70.1,210.1,70.6Z" transform="translate(0.4 2.3)"/><path class="cls-2" d="M227.3,74.9c-8.9-10.8-23,4.1-29.1,10.8-4.1,4.5-7.8,9.3-11.5,14.2-7.6,10.3-17.9,13.3-29.6,17-1.2.4-.8,2.4.4,2,8.6-2.8,17.4-5,24.6-10.8,4.7-3.8,8-9.6,11.8-14.3,5.2-6.6,22.6-29,31.9-17.6C226.6,77.2,228.1,75.9,227.3,74.9Z" transform="translate(0.4 2.3)"/><path class="cls-2" d="M281.5,252.4c-1.4.2-7.7-6.1-9.1-7.4-3.4-3-7.5-6.2-10.1-10a1,1,0,0,0-1.6-.3,119.89,119.89,0,0,0-9.4,10.7,28.91,28.91,0,0,0-.8-8.3,1.1,1.1,0,0,0-1.2-.8,29.85,29.85,0,0,0-12.6,4.5c-.4.3-.8.8-.5,1.3.7,1.2,1.7,2.7,2.4,4.1a27.12,27.12,0,0,0,1.9,10.5,10.63,10.63,0,0,0-.9,1.1c-.2.3-.4.5-.6.8-.2.1-.3.3-.4.4-.6-.3-1.4-.2-1.5.6-.3.3-.6.7-.3,1.2,3.8,8.2,4.9,17.1,7,25.9a1,1,0,0,0,2-.1v-1.3c4.6-.7,9.2-.8,13.8-1.2,1.3-.1.9-2.1-.4-2-4.5.4-9.1.5-13.6,1.1-.1-.7-.2-1.3-.3-2a1,1,0,0,0-.8-.8c-1.4-6.4-2.6-12.9-5.2-19a9,9,0,0,0,.9-1c2-2.7,4.5-4.7,6.8-7,.3-.4.7-.7,1-1.1.2.5.5,1,.7,1.5a1,1,0,0,0,1.9-.4c.2-1.6.4-3.2.5-4.7,3.4-4,6.5-8.1,10.2-11.9,2.9,3.9,7,7.1,10.6,10.3,1.9,1.6,7.1,7.7,10,7.2C283.1,254.1,282.7,252.1,281.5,252.4Zm-32.3-4.6c-.2.2-.3.4-.5.6a62.8,62.8,0,0,1-5.6,5.9,1.11,1.11,0,0,0-1.4-.4,23.91,23.91,0,0,1-.9-4.5,1,1,0,0,0,.7-1.1,46.65,46.65,0,0,1-1-7.5,26.18,26.18,0,0,1,8.2-2.6A31,31,0,0,1,249.2,247.8Z" transform="translate(0.4 2.3)"/><path class="cls-2" d="M284.2,251.1c-.4-1.2-2.2-.3-1.8.9,1.6,4.4,1.7,9.7,2.1,14.3.1,1.4,1.3,11,.5,13.8-3.6-1.1-7.6-.2-11.4-.7-1.3-.2-1.4,1.8-.2,2,3.4.5,7.2-.4,10.6.5a.92.92,0,0,0,1.4.7c.1,0,.1-.1.2-.1h0c1,.5,1.6-.8,1-1.6,1.1-3.2.1-9.5,0-11.5C286.4,263.5,286.3,256.7,284.2,251.1Z" transform="translate(0.4 2.3)"/><path class="cls-2" d="M264.6,265.5c-2.7-.6-4.6,2.1-5,4.3a7.72,7.72,0,0,0-.2,1.5c-.5-1.4-1-2.7-1.6-4.1-.5-1.2-2.3-.3-1.8.9a69.15,69.15,0,0,1,4,13.2,1,1,0,0,0,2-.4c-.4-2.1-2.3-16,3-13.3,2,1,2.9,4.2,3.5,6.1a31.45,31.45,0,0,1,1.1,4.4.91.91,0,0,0-.2,1.1,8.27,8.27,0,0,0,.9,1.6,1,1,0,0,0,1.7-.8C271.2,275.7,270.1,266.7,264.6,265.5Z" transform="translate(0.4 2.3)"/><path class="cls-2" d="M262.8,248.5c-2.4-1.3-6.1-.5-6.7,2.4-.5,2.2,1.3,4.1,3.2,4.8a.93.93,0,0,0,.2,1.7c2.6.6,5.9.3,6.4-2.8A5.91,5.91,0,0,0,262.8,248.5Zm1.2,5.6a1.64,1.64,0,0,1-1.6,1.6c.4-.6.3-1.6-.6-1.6-1.7.1-3.7-.9-3.7-2.9s3.1-1.5,4.2-.8A4.37,4.37,0,0,1,264,254.1Z" transform="translate(0.4 2.3)"/><path class="cls-2" d="M306.9,77.4c-8.1.6-2.2-17.8-2.8-22.4-.1-.9-1.3-1-1.8-.4a65.68,65.68,0,0,0-5.8,9c1.5-5.5,3.6-10.8,4.9-16.3.2-.9-.8-1.8-1.6-1.1-3.8,3.4-6.6,7.6-9.2,11.9,2.8-6.8,5.9-13.4,5.9-20.8,0-.7-.7-1.4-1.4-1-4.7,2.7-7.6,7.3-10,12.2,2.6-8.6,5.6-17.6,3-26.1a1,1,0,0,0-1.8-.4c-5.7,9.3-7,20.2-10.4,30.4-.1-15.6,2.9-31.8-2.2-46.8-.3-.9-1.5-.6-1.8.1-6.7,15.2-4.2,32.9-10.6,48.1-.3-15.3,2.1-31.1-3.8-45.5a1,1,0,0,0-1.7-.1c-7.3,12.5,3.9,30.3-5.1,41.8-6.6-10-2.3-24.1-6.2-35.1-.4-1.1-1.7-.5-1.9.4-2.4,11.8.5,25-4.3,36.2-1.5-9.2-.9-18.7-3.3-27.9a1,1,0,0,0-2,.1c-1.4,8-.3,16.6-2.1,24.5-.7-5.9-1.4-11.8-3.2-17.6-.3-.8-1.6-1.2-1.9-.1a90.47,90.47,0,0,0-2.3,17.9,117.85,117.85,0,0,0-7.7-18.8c-.6-1.1-2.4-.3-1.8.9a121.65,121.65,0,0,1,9.2,23.9,1,1,0,0,0,2-.1c.4-6.4.6-12.9,1.7-19.2a158,158,0,0,1,2.7,18.1c.1,1.1,1.6,1,1.9.1,3-7.2,2.4-15.2,2.9-22.9,1.1,8.1.9,16.4,2.6,24.4.2.8,1.4,1.2,1.8.4,5.9-10.7,3.9-23.1,5.1-34.9,1.9,10.7-1,22.9,6,32a1,1,0,0,0,1.4.1c10.4-11.5-.3-28.3,5.2-41.2,5.2,14.8,2.1,31.2,3,46.6,0,.9,1.3,1.6,1.8.6C269.6,43.1,266.9,25,272.8,9c4.3,15.6.5,32.5,1.4,48.4.1,1.1,1.5,1.5,1.9.4,4.5-10.5,5.4-22.4,10.8-32.5,1.9,10.7-4.2,22.1-6.1,32.4a1,1,0,0,0,1.8.6c3.3-6.3,6-14.7,12-19.2-.7,9.7-6.5,18.2-8.9,27.5a1,1,0,0,0,1.8.9c3.7-5.7,6.7-12.1,11.2-17.2-1.9,6.4-4.4,12.6-5.4,19.2-.2,1,1.3,1.4,1.8.6,2.5-3.9,4.5-8.1,7.1-11.9-.8,7.6-5,21.9,5.2,21.1C308.5,79.3,308.1,77.3,306.9,77.4Z" transform="translate(0.4 2.3)"/><path class="cls-2" d="M233.2,304.4a172.12,172.12,0,0,0-8.4,16.6c1.8-5.6,3.8-11.1,5.3-16.8a1,1,0,0,0-1.8-.9,64.89,64.89,0,0,0-8.4,14.1,54.33,54.33,0,0,0,1.7-9.8,1,1,0,0,0-1.8-.6c-3.4,5.9-4.9,12.6-7.4,18.8.7-5,1.5-10.1,1.7-15.2a1,1,0,0,0-1.8-.6c-3.2,5-4.9,10.6-6.9,16.1.5-4.4,1.2-8.7.5-13.1a1,1,0,0,0-1.8-.4c-3,4.4-3,9.8-5,14.5a72.33,72.33,0,0,1-2.1-10.3c-.2-1.1-2-1-2,.1-.1,4,.2,8-1,11.8-1.5-3.4-4-10-6.4-6.8-.8,1,.9,2.2,1.7,1.1-.9,1.2,3.1,7.6,4.1,8.7a1,1,0,0,0,1.7-.3,16.27,16.27,0,0,0,1.6-5.6,30.87,30.87,0,0,0,1.4,4.3,1,1,0,0,0,1.7.1c2.5-4.1,2.7-9.1,4.4-13.4,0,5.1-1.2,10.2-1.2,15.4a1,1,0,0,0,1.9.4c2.6-5.7,4.1-11.8,6.8-17.5-.5,5.6-1.5,11.2-2.2,16.8a1,1,0,0,0,1.8.6c3.4-5.8,4.8-12.3,7.3-18.5-1.3,6-3.4,11.8-4.9,17.8a1,1,0,0,0,1.9.7c3.4-7.7,6.3-15.8,10.8-23-2.2,7-4.8,14-6.2,21.3a1,1,0,0,0,1.8.6c3.5-6.8,6.4-14,10-20.8-1.9,9.3-4.9,18.3-7.8,27.3-.4,1.2,1.5,1.9,1.9.7,3.6-11,7.3-22,8.9-33.5A1,1,0,0,0,233.2,304.4Z" transform="translate(0.4 2.3)"/><path class="cls-2" d="M20.6,60.9A5.74,5.74,0,0,0,23.2,56c0-1.3-2-1.4-2-.2,0,4.8-5.2,4.5-8.8,4.7h-.5v-.1c-.2-.8-1.4-1.2-1.8-.4a6.89,6.89,0,0,1-.3.8,9.38,9.38,0,0,0-5,2.8C3.4,65,1.9,67.3,2.5,69.3c.6,2.3,3.7,1.9,5.4,1.5a1,1,0,0,0-.4-2C2.6,69.9,5,66,7.1,64.1a5.67,5.67,0,0,1,2.3-1.2,1.17,1.17,0,0,0,1.3.8,42.6,42.6,0,0,0,2.8,7c.4.9,2.3,4.9,3.7,2.6a1.07,1.07,0,0,0-.9-1.6.1.1,0,0,0-.1-.1c-.2-.3-.4-.7-.6-1-.6-1.1-1-2.2-1.5-3.3a40.92,40.92,0,0,1-1.8-4.9,23.48,23.48,0,0,1,2.6-.1,20.43,20.43,0,0,0,3.7-.6A76.23,76.23,0,0,0,23,73.8c.5,1.2,2.3.3,1.8-.9C23.3,69,21.5,65,20.6,60.9Z" transform="translate(0.4 2.3)"/><path class="cls-2" d="M32,56.7a4.9,4.9,0,0,1-2.4.8c-1.3.2-.9,2.2.4,2a7.89,7.89,0,0,0,3.3-1.3C34.3,57.4,33,55.9,32,56.7Z" transform="translate(0.4 2.3)"/><path class="cls-2" d="M34.5,60.4a2.24,2.24,0,0,1-2.7.9c-1.2-.5-1.9,1.4-.7,1.9a4.23,4.23,0,0,0,5-1.6A1,1,0,1,0,34.5,60.4Z" transform="translate(0.4 2.3)"/><path class="cls-2" d="M46.6,42.9c-3.7-3.8-7.9,1.3-8.1,5a1,1,0,0,0,2,.2c.1-2.2,1.7-5.4,4.5-3.9,1.5.8,1,3.3.9,4.6-.2,2.1-1.1,4.7.3,6.6.8,1,2.3-.3,1.5-1.3-1-1.3.2-4.6.3-6.1C48.1,46.1,47.9,44.2,46.6,42.9Z" transform="translate(0.4 2.3)"/><path class="cls-2" d="M49.2,61.3c-1.3.2-.9,2.2.4,2S50.4,61.1,49.2,61.3Z" transform="translate(0.4 2.3)"/><path class="cls-2" d="M184.7,344.2c-2.8-1.8-7.3-.5-9.2,2.1-2.1,3,.4,6.2,3.1,7.8a1.14,1.14,0,0,0,.8.7h.4c-1.5.8-9.4,5.6-6,7.4,1,.5,2-.8,1.4-1.5.1-.1.1-.2.2-.3A20,20,0,0,1,177,359a31.1,31.1,0,0,1,3.8-2.5,1,1,0,0,0,.1-1.7,6.08,6.08,0,0,0,5.6-3.7A5.4,5.4,0,0,0,184.7,344.2Zm-.1,6.6a4.28,4.28,0,0,1-4.1,2.2c-.1,0-.1-.1-.2-.1-2.2-1-4.9-3.7-2.6-6,1.5-1.5,4.8-2.1,6.5-.5A3.92,3.92,0,0,1,184.6,350.8Z" transform="translate(0.4 2.3)"/><path class="cls-2" d="M193.8,359.8c-2-2.5-4.7-4-6.8-6.3-.9-.9-2.4.4-1.5,1.3,2.1,2.3,4.9,3.9,6.8,6.3C193.1,362.1,194.6,360.8,193.8,359.8Z" transform="translate(0.4 2.3)"/><path class="cls-2" d="M189.1,377.2a24.73,24.73,0,0,0-6.1-6.4h0a8,8,0,0,0,1.3-1.3c.7-.8-.3-1.7-1.2-1.4.1-3.7-.3-7.4.1-11a1,1,0,0,0-2-.2c-.4,4.3.2,8.7-.2,13a45.41,45.41,0,0,1-5.3,3c-1.4.8-3,1.7-3.5,3.3-.4,1.2,1.5,1.9,1.9.7.5-1.8,3.6-2.8,5.1-3.5l1.5-.9v.3c-.2,1.2,1.6,1.4,1.9.3a20.85,20.85,0,0,1,4.7,5.1C188,379.2,189.8,378.3,189.1,377.2Z" transform="translate(0.4 2.3)"/><path class="cls-2" d="M240.4,106.5c-4-2.2-8-4.6-11.8-7.1a10.81,10.81,0,0,0,3-4.3c1.2-2.8,1.3-7.5-2.4-8.5-.2-.1-.4,0-.6,0-4.4-1.7-9.8-.4-12,4-1.8,3.7,1.3,8.2,4.9,9.8-1.7,2.3-3.5,4.5-5.4,6.7-1.2,1.4-5,4.6-3.5,6.6a.93.93,0,0,0,1.2.2,1.78,1.78,0,0,1,1-.4c1.3,0,1.4-2,.2-2h-.1c1.4-1.6,4.2-4.9,4.6-5.3,1.4-1.7,2.8-3.4,4.1-5.3h.3c.1,5.5,2,11.1,3.6,16.3,1.4,4.3,2.6,9.5,5.1,13.3-.1,5.9-1.7,11.8-3.6,17.4-.4,1.2,1.5,1.9,1.9.7,1.9-5.7,3.6-11.9,3.7-18a.8.8,0,0,0-.1-.8c-2.3-3.4-3.4-8-4.7-11.9-1.8-5.4-3.9-11.3-4-17a.37.37,0,0,0-.1-.3,3,3,0,0,0,1-.4l.3.3c3.9,2.6,8,5.1,12.1,7.3C240.4,108.7,241.5,107.1,240.4,106.5ZM224.8,99c.4-1-1.1-2-1.7-.9a4.35,4.35,0,0,0-.4.7c-2.8-1-5.1-4.3-4.3-7.1,1.2-3.9,6.5-4.4,9.7-3.1a.85.85,0,0,0,.7,0c2.2.8,1.6,3.7,1,5.5C229.1,96.2,227.3,98.7,224.8,99Z" transform="translate(0.4 2.3)"/><path class="cls-2" d="M248.7,135.1c-1.9.2-4.4-.8-6.2-1.3-1.5-.5-5.7-1.5-6-3.4-.2-1.3-2.1-.9-2,.4.3,2.6,4.2,3.9,6.3,4.6,2.4.9,5.6,2.1,8.2,1.8A1.06,1.06,0,0,0,248.7,135.1Z" transform="translate(0.4 2.3)"/><path class="cls-2" d="M229.8,365.1c-.2-.9-1.7-1.2-1.9-.1-3,12.2-4.3,24.8-8.1,36.8-.4-10.4,1.4-20.9.2-31.3a1,1,0,0,0-1.9-.1c-2.6,10.5-3.6,21.2-5.3,31.9.4-12.2,1.4-24.3.2-36.5a1,1,0,0,0-1.8-.4c-5.9,11.6-7.5,24.3-9.3,37,.4-8.2.5-16.3-2.1-24.2-.2-.7-1.4-.7-1.7-.1-3.6,6-5.3,12.5-6.5,19.2a39.77,39.77,0,0,0-1.6-10.8,1,1,0,0,0-1.9-.1,54.86,54.86,0,0,0-4.6,14.2,35.93,35.93,0,0,0-3-10.5,1,1,0,0,0-1.8.1,33.79,33.79,0,0,0-2.4,9.2,71.54,71.54,0,0,0-2.2-11.2c-.3-.8-1.7-1.2-1.9-.1a70.25,70.25,0,0,0-1.5,17.1,71.87,71.87,0,0,0-3.1-11.9c-.3-.9-1.6-.6-1.8.1a26.43,26.43,0,0,0-1.5,7.2c-.7-2.8-1.4-5.5-2.3-8.3-.3-1-1.8-.6-1.9.4a94.16,94.16,0,0,0,.5,18.4c-1.3-3.9-2.6-7.8-4.1-11.7-.4-1.1-2.1-.4-1.9.6,1.7,8.9,3.8,17.7,5.4,26.6-1.9-4.3-3.7-8.8-5.7-13.1-2.4-5.4-5.1-11.2-9.8-15-1-.8-2.1.8-1.1,1.7,4.7,3.9,7.2,10.1,9.7,15.5,2.7,6,5,12.1,8,18a1,1,0,0,0,1.9-.6c-.8-6.1-2-12.1-3.3-18.2.9,2.6,1.7,5.1,2.7,7.7.4,1.1,2.1.4,1.9-.6a127.47,127.47,0,0,1-2.5-23c1.7,6.6,2.7,13.4,3.9,20.1.2,1.1,2,1,2-.1v-.3h0c-.4-7.1-2.6-14.6-1-21.7,2.7,8.8,3.1,18,4.7,27.1.2,1.1,2,1,2-.1-.2-10.2-1.6-20.7-.2-30.9,1.7,8.1,1.7,16.4,3.1,24.6.2,1.1,2,1,2-.1-.3-8.2-1.2-16.5,1.4-24.3,2.4,6.2,2.5,13,2.5,19.8-.1,2.4,0,4.9.1,7.3.1,1.3,2,1.5,2,.2-.1-2.3-.1-4.6-.1-6.9a66.7,66.7,0,0,1,4.6-23.8c1.8,8.3.3,16.9,0,25.3a1,1,0,0,0,2,.2c2.2-11.4,2.6-23.5,8-34,3.2,11.8.5,24.5.7,36.5,0,1,1.7,1.6,1.9.4a.37.37,0,0,1,.1-.3h0c3.4-15.9,3.5-33,10.1-48.1.9,14.6-.9,29.1-.6,43.7,0,1,1.7,1.6,1.9.4,2.7-11.8,3.6-23.9,5.9-35.8.1,9.6-1.4,19.2-.3,28.8.1,1,1.6,1,1.9.1,4.6-11.9,6-24.6,8.7-37a72.46,72.46,0,0,1,.7,14.7h0c-1.2,6.3-1.3,12.6-1.5,18.9q-.3,3.6-.3,7.2a1,1,0,0,0,1.8.7v1a1,1,0,0,0-.6,1.1l.5,2.6c.2,1.1,2,1,2-.1.2-10.5,1.8-21,.1-31.4C231.8,378,231.5,371.5,229.8,365.1Z" transform="translate(0.4 2.3)"/><path class="cls-2" d="M25.8,224.2c-.9.5-1.9,1.1-2.8,1.6-1.1-1.4-2.1-2.7-3.3-4a1,1,0,1,0-1.5,1.3c1,1.2,2,2.4,3,3.7a35.92,35.92,0,0,1-3.4,1.7,1,1,0,0,0,.9,1.8c1.3-.6,2.5-1.2,3.7-1.9.9,1.2,1.9,2.4,2.9,3.5a1,1,0,1,0,1.5-1.3,40.31,40.31,0,0,1-2.6-3.2c.8-.5,1.7-.9,2.5-1.4C27.8,225.4,26.9,223.6,25.8,224.2Z" transform="translate(0.4 2.3)"/><path class="cls-2" d="M33.2,211.1a19.71,19.71,0,0,1-3.1-3.9c.1-.1.2-.1.3-.2,1.1-.6.2-2.4-.9-1.8-.2.1-.3.2-.5.3a12.43,12.43,0,0,0-2.5-3.5c-1-.8-2.1.8-1.1,1.7a10.61,10.61,0,0,1,2,2.9c-.9.6-1.8,1.1-2.7,1.7-1.1.6-.2,2.4.9,1.8s1.9-1.2,2.8-1.7a22.65,22.65,0,0,0,3.3,4.2C32.6,213.3,34.2,212,33.2,211.1Z" transform="translate(0.4 2.3)"/><path class="cls-2" d="M71.3,196.5a19.66,19.66,0,0,1-3.2,1,34,34,0,0,1-.7-3.4c-.2-1.3-2.2-.9-2,.4.2,1.1.5,2.3.7,3.4a13.48,13.48,0,0,1-3.5.2c-1.3,0-1.4,2-.2,2a27.28,27.28,0,0,0,4.1-.3,35.32,35.32,0,0,0,1.5,4.6c.5,1.2,2.3.3,1.8-.9-.5-1.4-.9-2.7-1.3-4.1a25.33,25.33,0,0,0,3.6-1.2C73.4,197.8,72.5,196,71.3,196.5Z" transform="translate(0.4 2.3)"/><path class="cls-2" d="M311.1,258.3a3.59,3.59,0,0,1-1,.7,21.38,21.38,0,0,0-2.3-3.8c-.8-1-2.3.3-1.5,1.3a19.38,19.38,0,0,1,2,3.3,21.62,21.62,0,0,1-4.4,1c-1.3.2-.9,2.2.4,2a24.93,24.93,0,0,0,4.7-1.2,12.09,12.09,0,0,1,.5,1.8,1,1,0,0,0,2-.4c-.2-.8-.4-1.5-.6-2.3a8.28,8.28,0,0,0,1.5-1.1C313.4,259,312.1,257.5,311.1,258.3Z" transform="translate(0.4 2.3)"/><path class="cls-2" d="M185,18.9a1,1,0,0,0-1.6.1,16.68,16.68,0,0,0-3.2,8.1,12.49,12.49,0,0,0-8.3-6.2c-.7-.1-1.1.6-1.1,1.2.8,6.4,6.4,9.8,11.1,13.5,1,.8,2.1-.9,1.1-1.7-3.8-3-8.4-5.9-9.9-10.7,3.5,1.3,5.7,4.7,7,8.1.3.9,1.9.6,1.9-.4,0-3.5.4-6.8,2.2-9.7a19.88,19.88,0,0,1,2,10.2,25.55,25.55,0,0,1-.2,3.7.73.73,0,0,0-.8.9c0,.8,0,1.7.8,2.1a1,1,0,0,0,1.2-.4c1-1.6,1-4.3,1.1-6.1A21.82,21.82,0,0,0,185,18.9Z" transform="translate(0.4 2.3)"/><path class="cls-2" d="M211.8,19.3a2.38,2.38,0,0,0-2.9-1.6,4.46,4.46,0,0,0-2.3,2,26.35,26.35,0,0,1-.2-2.8,1,1,0,0,0-1.7-.8c-3.7,3.9-3.5,8.9-1.2,13.6.3.7,1,.6,1.5.3a.84.84,0,0,0,1.3.5C209.9,28.2,213.4,23.9,211.8,19.3Zm-6.4,9.5h0c-1.5-2.9-2.1-6.2-.8-9a22.06,22.06,0,0,1,.4,3.7c0,1.1,1.6,1.5,1.9.4.3-.9,2.6-6.4,3.2-3.1S207.9,27.2,205.4,28.8Z" transform="translate(0.4 2.3)"/><path class="cls-2" d="M304.7,94.5c-.4,2.5-.9,5-1.4,7.5a19,19,0,0,0-5.6-6.7c-1.1-.8-2.2.9-1.1,1.7a16.43,16.43,0,0,1,5,6.1.93.93,0,0,0,1.4.3c-.5,2.4-.9,4.8-1.3,7.2-.2,1.3,1.8,1.4,2,.2.9-5.4,2.1-10.8,3-16.2C306.9,93.4,304.9,93.3,304.7,94.5Z" transform="translate(0.4 2.3)"/><path class="cls-2" d="M58.1,446.4c-2.7-4-4.6-8.5-6.9-12.7-.6-1.1-2.4-.2-1.8.9,2.4,4.4,4.4,9,7.2,13.1C57.3,448.8,58.8,447.5,58.1,446.4Z" transform="translate(0.4 2.3)"/><path class="cls-2" d="M69.7,440.4c-2.5-4.3-5.9-7.9-8.4-12.1-.6-1.1-2.4-.2-1.8.9,2.5,4.3,5.9,7.9,8.4,12.1C68.6,442.3,70.4,441.5,69.7,440.4Z" transform="translate(0.4 2.3)"/><path class="cls-2" d="M86.5,432c-2.8-4.2-6.9-7.8-8.1-12.9-.3-1.2-2.3-.9-2,.4a1.42,1.42,0,0,0,.2.6c.5,2,1,5-1,6.2-2.3,1.3-4.2-3-4.8-4.4-.5-1.2-2.3-.3-1.8.9,1,2.6,3.7,6.9,7.1,5.5a4.72,4.72,0,0,0,2.7-3.3c1.7,2.8,4,5.2,5.9,8C85.4,434,87.2,433.1,86.5,432Z" transform="translate(0.4 2.3)"/><path class="cls-2" d="M121.4,412.5c-6.1-2-13.5,6.1-17.7,9.3-3.5,2.6-10.3,8.1-12.4,1.2-1.3-4.2-.5-9.2-3-12.9-.7-1.1-2.2.3-1.5,1.3,3.4,5,.2,20.1,10.6,16.6,3.8-1.3,7.1-4.2,10.3-6.6s8.8-8.4,13.2-7C122,414.8,122.7,412.9,121.4,412.5Z" transform="translate(0.4 2.3)"/><path class="cls-2" d="M109.5,408.7a9.88,9.88,0,0,0-3.5-2.2,11.42,11.42,0,0,1,.9-2.6c.6-1.2-1.3-1.8-1.9-.7a10,10,0,0,0-1,2.9,12.1,12.1,0,0,0-3.8,0,9.52,9.52,0,0,1,3.5-2.2c1.2-.5.3-2.3-.9-1.8-2.7,1.1-4.6,2.4-5.7,5.1-.4.9.6,1.5,1.4,1.2a10.27,10.27,0,0,1,5.2-.4,12.2,12.2,0,0,0,1.1,5.6,1,1,0,0,0,1.1.5c1.6-.2,3.7-.5,4.4-2.1C111,410.9,110.4,409.7,109.5,408.7Zm-3,3.5a8.75,8.75,0,0,1-.7-3.5c.5.2.9.4,1.3.6a2.87,2.87,0,0,1,1.6,1.8C108.7,411.9,107.4,412.1,106.5,412.2Z" transform="translate(0.4 2.3)"/><path class="cls-2" d="M111.6,441c-1.7-3.4-3.3-6.8-5-10.2a1,1,0,0,0-1.8.9c1.7,3.4,3.3,6.8,5,10.2C110.4,443,112.2,442.1,111.6,441Z" transform="translate(0.4 2.3)"/><path class="cls-2" d="M80.7,459.2a3.94,3.94,0,0,0-1.9-4.4c-2.9-1.8-6,.8-7.5,3.2a1,1,0,0,0,1.7,1.1c1-1.6,2.4-3.2,4.5-2.7,2.4.7.9,3.7.1,4.9a1,1,0,0,0,1.7,1.1c1.9-2.6,4.1-1,4.7,1.6,1,4.4-3.5,5.5-6.9,5.2a1,1,0,0,0-.2,2c5,.4,10.3-2.1,8.9-7.9C85.2,460.5,83,458.8,80.7,459.2Z" transform="translate(0.4 2.3)"/><path class="cls-2" d="M99.4,459.6c-2.4-4.1-5.5-7.6-7.9-11.7-.6-1.1-2.4-.2-1.8.9,1.2,2,2.6,3.9,3.9,5.9-3.2,3.2-6.2-1.1-7.3-4.2-.4-1.2-2.2-.3-1.8.9,1.5,4.3,6.1,9,10.2,5,1,1.4,1.9,2.8,2.8,4.2C98.3,461.6,100.1,460.7,99.4,459.6Z" transform="translate(0.4 2.3)"/><path class="cls-2" d="M125.2,434.8a63.81,63.81,0,0,0-3.2-5.7c.3-.6-.1-1.1-.7-1.3a17,17,0,0,1-1.8-4.4,1,1,0,0,0-2,.4,18.93,18.93,0,0,0,2.1,5.1c-1.1,1.2-2.6,2.3-4.2,1.8-1.8-.6-2.6-3.2-3.1-4.8-.4-1.2-2.3-.9-2,.4.7,2.5,1.8,5.2,4.4,6.3,2.1.9,4.2-.4,5.8-1.9a49,49,0,0,1,2.8,5C123.9,436.8,125.7,435.9,125.2,434.8Z" transform="translate(0.4 2.3)"/><path class="cls-2" d="M113.1,479.6c-.8,2.7-3.6,3.9-6.1,5.1.8-4.5.8-9.1-1.8-13.1a1.06,1.06,0,0,0-1.6-.3,7.19,7.19,0,0,0-2.8,3.4,1,1,0,0,0,1.9.7,4.74,4.74,0,0,1,1.2-1.8c2,3.9,1.6,8.4.6,12.7-.2.7.5,1.8,1.4,1.2,3.3-2.1,7.7-3.1,8.9-7.3C115.4,479.1,113.5,478.4,113.1,479.6Z" transform="translate(0.4 2.3)"/><path class="cls-2" d="M129.5,427.7a1,1,0,0,0,1.1,1.6c0,.7-.1,1.4-.1,2-.1,1.3-.4,2.6-.5,4a1,1,0,0,0,2,.2c.1-2.1.7-4.2.6-6.3C132.5,427.3,131,426.3,129.5,427.7Z" transform="translate(0.4 2.3)"/><path class="cls-2" d="M119.6,465.4a1.07,1.07,0,0,0-1.1.1c-1.3-1-2.9-1.8-4.5-.9-1.4.8-1.8,2.6-1.9,4.1,0,3.4,2.4,7.2,5.8,7.9,2.5.5,4.7-1.6,5.3-3.9C124.1,469.6,122.3,466.9,119.6,465.4Zm1.9,6.1a3.42,3.42,0,0,1-2.5,3.1c-2.2.4-4-2.4-4.5-4.1a4.51,4.51,0,0,1,.1-3.6c.7-1.4,2.2-.3,3,.4a.82.82,0,0,0,1.2-.1A4.79,4.79,0,0,1,121.5,471.5Z" transform="translate(0.4 2.3)"/><path class="cls-2" d="M142.3,420.2a15.67,15.67,0,0,1-4.5,2.2,17.2,17.2,0,0,0-2.2-7.8c-.5-.8-1.4-1.7-2.5-1.3s-1.4,2.3-1.6,3.4c-.2,1.3,1.8,1.4,2,.2.1-.5.2-.9.3-1.4h0a7.22,7.22,0,0,1,.9,2,15.56,15.56,0,0,1,1.1,6,1.08,1.08,0,0,0,1.2,1.1,17.77,17.77,0,0,0,6.6-2.9C144.6,420.9,143.3,419.4,142.3,420.2Z" transform="translate(0.4 2.3)"/><path class="cls-2" d="M145,472a1,1,0,0,0-1.4-.1c-.2.2-.3.4-.5.6a.87.87,0,0,0-1.1-.9c-3.3.8-5.7,3.3-5.7,6.8a7,7,0,0,0,5.9,6.6c2.7.4,4.5-2.2,5-4.5C147.8,477.5,147.2,474,145,472Zm-1.7,10.8c-2.1,1-4.5-2-4.9-3.7-.6-2.7,1.6-5,4-5.5.1,0,.2-.1.3-.1a6.12,6.12,0,0,1-.5,1.2c-.6,1.2,1.3,1.8,1.9.7a6.88,6.88,0,0,0,.3-.8C145.8,477,146.1,481.4,143.3,482.8Z" transform="translate(0.4 2.3)"/><path class="cls-2" d="M43.2,397.6a1,1,0,0,0-1.3-.5,9.8,9.8,0,0,0-4.4,8.4c-1.5-2.4-3.2-4.7-5.5-5.5-3.8-1.3-5.8,2.9-5.8,6.1.2,8,11.2,9.9,17.3,11.4h.1v.4a1,1,0,0,0,1.8.4,5.26,5.26,0,0,0,.4-1.8.76.76,0,0,0-.3-.8c.1-1.7.4-3.5.6-5.1C46.5,406.5,44.9,401.3,43.2,397.6Zm.8,13.8c-.1,1.3-.4,2.7-.4,4.1-4.5-1.1-9.3-2.4-13.2-4.9-3.2-2.1-2.4-11,1.8-8,2.7,1.9,4.3,5.5,6,8.3.6.9,2.2.5,1.9-.6-1-3.6-1.1-8,1.8-10.6A24.85,24.85,0,0,1,44,411.4Z" transform="translate(0.4 2.3)"/><path class="cls-2" d="M64.5,392a1.06,1.06,0,0,0-1.6-.3,11.24,11.24,0,0,0-4.4,6.7c-.7-1-1.4-2-2.2-3a1,1,0,0,0-1.4-.1c-5.9,4.4-.8,10.2,4.4,12.1a1,1,0,0,0,.7-1.9c-3.5-1.3-7.7-4.8-4.5-8a15.3,15.3,0,0,1,2.9,5.1,1,1,0,0,0,2-.4,8.86,8.86,0,0,1,2.9-8.2c2.1,4.5-.4,10-1.6,14.6-.3,1.2,1.6,1.9,1.9.7C65,403.8,68,397.2,64.5,392Z" transform="translate(0.4 2.3)"/><path class="cls-2" d="M27.3,454.9c-1.3.2-.9,2.2.4,2,1.6-.2,5.3,0,2.8,2.4a6.19,6.19,0,0,1-4.1,1.4,1,1,0,0,0-.6,1.6,19.57,19.57,0,0,1,2,3,15.44,15.44,0,0,1-5-3.9,1,1,0,0,0-1.6.1,19.92,19.92,0,0,1-3.8,5.2c-.2-4-3.5-5.5-7-7.7,1.9-.7,4.2-1.5,5.7-1a1.09,1.09,0,0,0,1.3-.6.93.93,0,0,0,.9-.7c.4-1.3.7-2.6,1-3.9a26.23,26.23,0,0,1,1.9-4.6,16.38,16.38,0,0,1,3.5,6.8,1,1,0,0,0,2-.4,18.45,18.45,0,0,0-4.9-8.7,1,1,0,0,0-1.6.1L19,448.1a1.07,1.07,0,0,0-1.1.9c-.2,1.2-.4,2.4-.6,3.5a23.69,23.69,0,0,0-.9,3.6c-2.7-.7-6,1.1-8.5,1.7a1,1,0,0,0-.4,1.8c3.4,2.5,8.8,3.6,7.7,9-.2.7.5,1.8,1.4,1.2a17.52,17.52,0,0,0,5.6-5.9,14.91,14.91,0,0,0,7.8,4.4c.9.2,1.3-1,.8-1.7-1-1.3-1.7-2.7-2.6-4,2.5-.6,4.8-2,5.2-4.7C33.9,454.5,29.2,454.6,27.3,454.9Z" transform="translate(0.4 2.3)"/><path class="cls-2" d="M272.3,418.3c-10.6,5.1-18.2,13.7-26.1,22.1-4.4,4.7-9,9-14.8,12.2-6.1,3.3-13.1,4.8-19.8,6.4-4.4,1-8.7,2.4-13.3,2.1s-8.4-3.3-11.9-6-7.1-6.4-12-5.7-8.4,4-11.3,7.9c-.8,1,.9,2.2,1.7,1.1,2.3-3.2,4.8-5.8,8.7-6.9,4.2-1.2,7.7,1.9,10.7,4.3a39.86,39.86,0,0,0,9.5,6.2c7.2,3,16.1-.6,23.2-2.4,11.2-2.8,20.2-7.4,28.4-15.6,8.8-8.8,16.3-18.5,27.8-24C274.3,419.6,273.4,417.8,272.3,418.3Z" transform="translate(0.4 2.3)"/><path class="cls-2" d="M57.9,470.3a19.66,19.66,0,0,1-3.2,1,34,34,0,0,1-.7-3.4c-.2-1.3-2.2-.9-2,.4.2,1.1.5,2.3.7,3.4a13.48,13.48,0,0,1-3.5.2c-1.3,0-1.4,2-.2,2a27.28,27.28,0,0,0,4.1-.3,35.32,35.32,0,0,0,1.5,4.6c.5,1.2,2.3.3,1.8-.9-.5-1.4-.9-2.7-1.3-4.1a25.33,25.33,0,0,0,3.6-1.2C60,471.6,59.1,469.8,57.9,470.3Z" transform="translate(0.4 2.3)"/><path class="cls-2" d="M308.4,458.1a26.42,26.42,0,0,0-6.3.2c-1.3.2-.9,2.1.4,2a27.48,27.48,0,0,1,4.1-.2,6.46,6.46,0,0,1-5.5,2.1c-.9,0-1.6,1.3-.6,1.8a10.36,10.36,0,0,1,4.2,4.1,22.44,22.44,0,0,1-6.1-1.8,1,1,0,0,0-1.2.4c-1.3,2-2.2,4.2-3.4,6.3-.3-2.3-.6-4.6-1.9-6.5s-4-2.2-6.4-2.1a5.38,5.38,0,0,1,5.3-1.9h.3c.2.9,1.6,1.2,1.9.2a53.51,53.51,0,0,0,1.1-5.5.94.94,0,0,0-.5-1l.3-3.3a33.51,33.51,0,0,1,5.9,6c.8,1,2.3-.3,1.5-1.3a41.47,41.47,0,0,0-7.7-7.4,1.07,1.07,0,0,0-1.6.7c-.3,3.2-.5,6.5-.7,9.7-.1,0-.1-.1-.2-.1-3.9-.2-6.9.9-8.4,4.6a1,1,0,0,0,1.1,1.3c2.6-.2,5.8-.5,7.2,2.3,1,2.1,1,5,1.3,7.3.1.9,1.3,1,1.8.4.6-.8,4.3-8,5-7.7a19.21,19.21,0,0,0,7.1,1.5c.6,0,1.3-.5,1.1-1.2a12.31,12.31,0,0,0-3.5-5.2,8.67,8.67,0,0,0,5.4-4.1A1.35,1.35,0,0,0,308.4,458.1Z" transform="translate(0.4 2.3)"/><path class="cls-2" d="M264.3,489.9c-1.4.2-7.7-6.1-9.1-7.4-3.4-3-7.5-6.2-10.1-10a1,1,0,0,0-1.6-.3,119.89,119.89,0,0,0-9.4,10.7,28.91,28.91,0,0,0-.8-8.3,1.1,1.1,0,0,0-1.2-.8,29.85,29.85,0,0,0-12.6,4.5c-.4.3-.8.8-.5,1.3.7,1.2,1.7,2.7,2.4,4.1a27.12,27.12,0,0,0,1.9,10.5,10.63,10.63,0,0,0-.9,1.1c-.2.3-.4.5-.6.8-.2.1-.3.3-.4.4-.6-.3-1.4-.2-1.5.6-.3.3-.6.7-.3,1.2,3.8,8.2,4.9,17.1,7,25.9a1,1,0,0,0,2-.1v-1.3c4.6-.7,9.2-.8,13.8-1.2,1.3-.1.9-2.1-.4-2-4.5.4-9.1.5-13.6,1.1-.1-.7-.2-1.3-.3-2a1,1,0,0,0-.8-.8c-1.4-6.4-2.6-12.9-5.2-19a9,9,0,0,0,.9-1c2-2.7,4.5-4.7,6.8-7,.3-.4.7-.7,1-1.1.2.5.5,1,.7,1.5a1,1,0,0,0,1.9-.4c.2-1.6.4-3.2.5-4.7,3.4-4,6.5-8.1,10.2-11.9,2.9,3.9,7,7.1,10.6,10.3,1.9,1.6,7.1,7.7,10,7.2C265.9,491.6,265.5,489.6,264.3,489.9ZM232,485.3c-.2.2-.3.4-.5.6a62.79,62.79,0,0,1-5.6,5.9,1.11,1.11,0,0,0-1.4-.4,23.91,23.91,0,0,1-.9-4.5,1,1,0,0,0,.7-1.1,46.65,46.65,0,0,1-1-7.5,26.18,26.18,0,0,1,8.2-2.6A31,31,0,0,1,232,485.3Z" transform="translate(0.4 2.3)"/><path class="cls-2" d="M284.9,503.3c-.4-1.2-2.2-.3-1.8.9,1.6,4.4,1.7,9.7,2.1,14.3.1,1.4,1.3,11,.5,13.8-3.6-1.1-7.6-.2-11.4-.7-1.3-.2-1.4,1.8-.2,2,3.4.5,7.2-.4,10.6.5a.92.92,0,0,0,1.4.7c.1,0,.1-.1.2-.1h0c1,.5,1.6-.8,1-1.6,1.1-3.2.1-9.5,0-11.5C287.1,515.7,287,508.9,284.9,503.3Z" transform="translate(0.4 2.3)"/><path class="cls-2" d="M265.3,517.7c-2.7-.6-4.6,2.1-5,4.3a7.72,7.72,0,0,0-.2,1.5c-.5-1.4-1-2.7-1.6-4.1-.5-1.2-2.3-.3-1.8.9a69.15,69.15,0,0,1,4,13.2,1,1,0,0,0,2-.4c-.4-2.1-2.3-16,3-13.3,2,1,2.9,4.2,3.5,6.1a31.45,31.45,0,0,1,1.1,4.4.91.91,0,0,0-.2,1.1,8.27,8.27,0,0,0,.9,1.6,1,1,0,0,0,1.7-.8C271.9,527.9,270.8,518.9,265.3,517.7Z" transform="translate(0.4 2.3)"/><path class="cls-2" d="M263.5,500.7c-2.4-1.3-6.1-.5-6.7,2.4-.5,2.2,1.3,4.1,3.2,4.8a.93.93,0,0,0,.2,1.7c2.6.6,5.9.3,6.4-2.8A5.91,5.91,0,0,0,263.5,500.7Zm1.2,5.6a1.64,1.64,0,0,1-1.6,1.6c.4-.6.3-1.6-.6-1.6-1.7.1-3.7-.9-3.7-2.9s3.1-1.5,4.2-.8A4.37,4.37,0,0,1,264.7,506.3Z" transform="translate(0.4 2.3)"/><path class="cls-2" d="M185.7,498.1a2.38,2.38,0,0,0-2.9-1.6,4.46,4.46,0,0,0-2.3,2,26.35,26.35,0,0,1-.2-2.8,1,1,0,0,0-1.7-.8c-3.7,3.9-3.5,8.9-1.2,13.6.3.7,1,.6,1.5.3a.84.84,0,0,0,1.3.5C183.8,507,187.3,502.7,185.7,498.1Zm-6.4,9.5h0c-1.5-2.9-2.1-6.2-.8-9a22.06,22.06,0,0,1,.4,3.7c0,1.1,1.6,1.5,1.9.4.3-.9,2.6-6.4,3.2-3.1S181.8,506,179.3,507.6Z" transform="translate(0.4 2.3)"/><path class="cls-2" d="M37.3,493.1c-2.8-1.8-7.3-.5-9.2,2.1-2.1,3,.4,6.2,3.1,7.8a1.14,1.14,0,0,0,.8.7h.4c-1.5.8-9.4,5.6-6,7.4,1,.5,2-.8,1.4-1.5.1-.1.1-.2.2-.3a20,20,0,0,1,1.6-1.4,31.1,31.1,0,0,1,3.8-2.5,1,1,0,0,0,.1-1.7,6.08,6.08,0,0,0,5.6-3.7A5.4,5.4,0,0,0,37.3,493.1Zm-.1,6.6a4.28,4.28,0,0,1-4.1,2.2c-.1,0-.1-.1-.2-.1-2.2-1-4.9-3.7-2.6-6,1.5-1.5,4.8-2.1,6.5-.5A3.92,3.92,0,0,1,37.2,499.7Z" transform="translate(0.4 2.3)"/><path class="cls-2" d="M46.4,508.7c-2-2.5-4.7-4-6.8-6.3-.9-.9-2.4.4-1.5,1.3,2.1,2.3,4.9,3.9,6.8,6.3C45.7,511,47.2,509.7,46.4,508.7Z" transform="translate(0.4 2.3)"/><path class="cls-2" d="M41.7,526.1a24.73,24.73,0,0,0-6.1-6.4h0a8,8,0,0,0,1.3-1.3c.7-.8-.3-1.7-1.2-1.4.1-3.7-.3-7.4.1-11a1,1,0,0,0-2-.2c-.4,4.3.2,8.7-.2,13a45.4,45.4,0,0,1-5.3,3c-1.4.8-3,1.7-3.5,3.3-.4,1.2,1.5,1.9,1.9.7.5-1.8,3.6-2.8,5.1-3.5l1.5-.9v.3c-.2,1.2,1.6,1.4,1.9.3a20.85,20.85,0,0,1,4.7,5.1C40.6,528.1,42.4,527.2,41.7,526.1Z" transform="translate(0.4 2.3)"/><path class="cls-2" d="M141.6,497.1a.91.91,0,0,0,0-1.2,9.35,9.35,0,0,0-3.7-2.5c-.6-.4-1.1-.9-1.7-1.3a1,1,0,0,0-.9-.1,23.08,23.08,0,0,1-2.8-1,.9.9,0,0,0-.6-1.3c-12.4-3.9-24.7,2.8-30.1,14.2-5.7,12,1.6,24.7,13.6,28.8a21.18,21.18,0,0,0,12.7.2,1,1,0,0,0,1.8-.2c.1-.2.2-.3.2-.5a28.09,28.09,0,0,0,13.7-11.3C149,512.7,147.3,503.8,141.6,497.1Zm-26.5-4.2a12,12,0,0,1-1.2,2.2,1,1,0,0,0-1.5.1,12.86,12.86,0,0,1-2.1,1.9c-.2-.3-.4-.5-.7-.5A23.07,23.07,0,0,1,115.1,492.9Zm-6.7,4.8c-.3.8-.4,1.5.3,1.9-.7.1-1.4.1-2.2.2C107.1,499.1,107.7,498.4,108.4,497.7Zm-5.1,7.9a26.4,26.4,0,0,1,1.8-3.8c2.4-.1,4.7-.5,7.1-.7a1,1,0,0,0,.4.5l4.5,3.1a1,1,0,0,0-.5,1,67.79,67.79,0,0,1,1.6,9,1,1,0,0,0-1.1.4,23.48,23.48,0,0,1-4.6,4.3l-.1.1c-2.5-1.5-4.7-3.2-5.2-6.4-.1-.5-.7-1-1.2-.8-1.4.5-2.7,0-4.1.3A30,30,0,0,1,103.3,505.6Zm.7,10.3a.94.94,0,0,0-.5,1c.1.4.2.9.3,1.3l.7,3.5a19.75,19.75,0,0,1-2.3-7.1,13,13,0,0,1,3.4-.1v.1a1.15,1.15,0,0,0-1.2.4C104.3,515.3,104.1,515.6,104,515.9Zm3.1,9.5c0-.1.1-.3,0-.5a11.13,11.13,0,0,1-.2-1.7c.9,1.5,1.8,2.9,2.6,4.4A17,17,0,0,1,107.1,525.4Zm1.4-3.4a.89.89,0,0,0,.4-1,16.55,16.55,0,0,0-.6-2.1,23.22,23.22,0,0,0,3,2.2,4.84,4.84,0,0,0-1.5,3.2C109.4,523.6,108.9,522.8,108.5,522Zm19.8,8.8a19.43,19.43,0,0,1-3.3.7,20,20,0,0,0,1.6-1.4,11.63,11.63,0,0,1,1.8-.4A4.1,4.1,0,0,0,128.3,530.8Zm-.5-12.3h0a1,1,0,0,0,.3,1.7l.6,3.1a.37.37,0,0,0-.3.1c-2.9,1.7-6,2.6-8.1,5.4-.7,1,.6,1.9,1.5,1.3a20.54,20.54,0,0,1,3.9-2l-.3.3a8.22,8.22,0,0,0-4.5,3.3,26,26,0,0,1-3.9-.5,22.82,22.82,0,0,1-6-2.4.76.76,0,0,0,.6-.8c-.1-1.6-.6-5.9,2.3-5.3a1,1,0,0,0,.6-1.8c-.1,0-.2-.1-.3-.1a22.79,22.79,0,0,0,3.9-3.7c0,.7.8,1.3,1.4.9a8.86,8.86,0,0,1,7.3-.5c1.2.4,1.9-1.5.7-1.9a11.72,11.72,0,0,0-7.4-.1,55.73,55.73,0,0,0-1.5-9.1c2.1-.6,4.1-1.6,6.2-2.1,1.2-.3.9-2.3-.4-2a55.18,55.18,0,0,0-5.3,1.8,1.76,1.76,0,0,0-.4-.5l-3.9-2.6c.5-.1.9-.4.9-.9a25.06,25.06,0,0,1,1.5-7.7.45.45,0,0,0,0-.5,22.82,22.82,0,0,1,10.7-1,4.89,4.89,0,0,0,1.8,1.4,1.14,1.14,0,0,0,.8,1.4,18.87,18.87,0,0,1,6.8,2.3,10.58,10.58,0,0,1-10-4.2c-.6-.7-2-.1-1.7.8a9.61,9.61,0,0,0,3.7,5.3,11.26,11.26,0,0,1-2.1,1.5,1,1,0,0,0-.3,1.5,1.1,1.1,0,0,0,0,.8,8.64,8.64,0,0,0,1,1.6.91.91,0,0,0-.8.4c-1.5,1.8-2.8,3.8-4.1,5.7a28.64,28.64,0,0,1,.7-2.8c.3-1.2-1.5-1.9-1.9-.7a17.49,17.49,0,0,0-.9,6.8c.1.9,1.3,1,1.8.4a57.37,57.37,0,0,0,3.6-5,40.48,40.48,0,0,1-1.7,4.9c-.5,1.2,1.3,1.8,1.9.7a13.31,13.31,0,0,1,2.3-3,10.42,10.42,0,0,1-.5,5.2.91.91,0,0,0,.3,1c-.6,0-1.2.4-1,1.1Zm2.6-10a1,1,0,0,0-1.7-.1h0a16.45,16.45,0,0,0,.5-3.2c.8,1.3,1.6,2.7,2.3,4.1a4.85,4.85,0,0,1,.5,2.6,1.08,1.08,0,0,0-.8-.2A21.37,21.37,0,0,0,130.4,508.5Zm4.7,4.4c2,.4,4.1.7,6.1,1.3-.1,1.3-.2,2.6-.2,3.9a1,1,0,0,0,1.6.8c-.2.3-.3.6-.5.9a24.12,24.12,0,0,1-7.2,7.7l-.1-.1a8.08,8.08,0,0,0-4.9-2,1.08,1.08,0,0,0-.7-.3l.1-.1c.1,0,.1-.1.2-.2a1,1,0,0,0,1.3-1.1l-.9-4.7c2.2-2.2,4.5-5,4-8.2-.5-3.7-3.2-6.7-5-9.9h0a10.25,10.25,0,0,0,2.7-2.3h.4a1.06,1.06,0,0,0,.8-.9,14.68,14.68,0,0,0,6.6,0c.1.1.2.3.3.4a1,1,0,0,0,.5.4,19.3,19.3,0,0,1,3.9,7.5,17.1,17.1,0,0,0-1.3,2.3,1.07,1.07,0,0,0-1.1.9,28.85,28.85,0,0,0-.4,2.9c-2-.6-4.1-.9-6.1-1.3C134,510.7,133.8,512.7,135.1,512.9Zm7.9,5.3c.2-1.1.3-2.2.5-3.3a.85.85,0,0,0,.5-.3.6.6,0,0,0,.4-.1A27.92,27.92,0,0,1,143,518.2Z" transform="translate(0.4 2.3)"/></svg>