<?xml version="1.0" encoding="utf-8"?>
<!-- Generator: Adobe Illustrator 21.0.2, SVG Export Plug-In . SVG Version: 6.00 Build 0)  -->
<svg version="1.1" id="Layer_1" xmlns="http://www.w3.org/2000/svg" xmlns:xlink="http://www.w3.org/1999/xlink" x="0px" y="0px"
	 viewBox="0 0 85 114" style="enable-background:new 0 0 85 114;" xml:space="preserve">
<style type="text/css">
	.st0{fill:#E8E6D3;}
	.st1{fill:#F89C42;}
	.st2{fill:#F18040;}
	.st3{fill:#F9BA49;}
	.st4{fill:#FFFFFF;}
</style>
<path class="st0" d="M79.2,46.2c0.5-0.6,0.4-1.5-0.1-2.1l-2.2-2.5c-0.4-0.5-0.5-1.2-0.3-1.7l1.3-3.1c0.3-0.7,0.1-1.6-0.6-2l-2.7-1.9
	c-0.5-0.4-0.8-1-0.7-1.6l0.5-3.3c0.1-0.8-0.3-1.5-1.1-1.8L70.2,25c-0.6-0.2-1-0.8-1.1-1.4l-0.4-3.3c-0.1-0.8-0.7-1.4-1.5-1.5
	l-3.3-0.4c-0.6-0.1-1.2-0.5-1.4-1.1l-1.2-3.1c-0.3-0.7-1-1.2-1.8-1.1l-3.3,0.5c-0.6,0.1-1.3-0.2-1.6-0.7l-1.9-2.7
	c-0.5-0.6-1.3-0.9-2-0.6l-3.1,1.3c-0.6,0.2-1.3,0.1-1.7-0.3l-2.5-2.2C42.7,8,41.8,8,41.2,8.4l-2.7,2c-0.5,0.4-1.2,0.4-1.8,0.2
	l-3-1.5c-0.7-0.3-1.6-0.2-2.1,0.5l-2.1,2.6c-0.4,0.5-1,0.7-1.7,0.6l-3.3-0.7c-0.8-0.2-1.6,0.2-1.9,1l-1.4,3c-0.3,0.6-0.8,1-1.5,1
	l-3.3,0.2c-0.8,0-1.4,0.6-1.6,1.4L14.6,22c-0.1,0.6-0.6,1.1-1.2,1.3l-3.2,1C9.5,24.5,9,25.3,9,26l0.3,3.3C9.4,30,9,30.6,8.5,30.9
	l-2.8,1.7c-0.7,0.4-1,1.2-0.7,2l1.1,3.1c0.2,0.6,0.1,1.3-0.4,1.7l-2.3,2.4c-0.5,0.6-0.6,1.4-0.2,2.1L5,46.8c0.3,0.5,0.4,1.2,0.1,1.8
	l-1.6,2.9C3,52.1,3.2,53,3.8,53.5l2.5,2.2c0.5,0.4,0.7,1.1,0.5,1.7l-0.9,3.2c-0.2,0.8,0.1,1.6,0.8,1.9l2.9,1.6
	c0.6,0.3,0.9,0.9,0.9,1.5l0,3.3c0,0.8,0.5,1.5,1.3,1.7l3.2,0.8c0.6,0.1,1.1,0.6,1.2,1.2l0.8,3.2c0.2,0.8,0.9,1.3,1.7,1.3l3.3-0.1
	c0.6,0,1.2,0.3,1.5,0.9l1.2,2.3l-10.9,28.1l13.3-5.7l8.8,11.5l4.6-31.8c0.1,0,0.2,0.1,0.3,0.2l2.2,1.4l4.4,30.2l8.8-11.5l13.3,5.7
	L57.9,78.2c0.2,0,0.3,0,0.5,0l3.3,0.2c0.8,0.1,1.5-0.4,1.7-1.2l1-3.2c0.2-0.6,0.7-1.1,1.3-1.2l3.3-0.6c0.8-0.1,1.4-0.8,1.4-1.6
	l0.2-3.3c0-0.6,0.4-1.2,1-1.5l3-1.4c0.7-0.3,1.1-1.1,1-1.9l-0.7-3.3c-0.1-0.6,0.1-1.3,0.6-1.7l2.6-2.1c0.6-0.5,0.8-1.4,0.5-2.1
	l-1.5-3c-0.3-0.6-0.2-1.2,0.2-1.8L79.2,46.2z"/>
<g>
	<g>
		<polygon class="st1" points="30.5,70.3 15.8,108 29.1,102.3 37.3,71.4 		"/>
		<polygon class="st2" points="43.7,73.8 37.9,113.8 29.1,102.3 37.3,71.4 		"/>
	</g>
	<g>
		<polygon class="st1" points="56.9,70.3 71.6,108 58.3,102.3 50.1,71.4 		"/>
		<polygon class="st2" points="43.7,73.8 49.5,113.8 58.3,102.3 50.1,71.4 		"/>
	</g>
	<path class="st3" d="M63.6,78l-3.3-0.2c-0.6,0-1.2,0.3-1.6,0.8L57,81.4c-0.4,0.7-1.2,1-2,0.7l-3.2-1.1c-0.6-0.2-1.3-0.1-1.7,0.4
		l-2.4,2.3c-0.6,0.5-1.4,0.6-2.1,0.2l-2.8-1.8c-0.5-0.3-1.2-0.4-1.8-0.1l-2.9,1.7c-0.7,0.4-1.5,0.3-2.1-0.3L33.9,81
		c-0.4-0.5-1.1-0.7-1.7-0.5L29,81.4c-0.8,0.2-1.6-0.1-1.9-0.8l-1.6-2.9c-0.3-0.6-0.9-0.9-1.5-0.9l-3.3,0.1c-0.8,0-1.5-0.5-1.7-1.3
		l-0.8-3.2c-0.2-0.6-0.6-1.1-1.2-1.2l-3.2-0.8c-0.8-0.2-1.3-0.9-1.3-1.7l0-3.3c0-0.6-0.3-1.2-0.9-1.5l-2.9-1.6
		c-0.7-0.4-1-1.2-0.8-1.9L8.7,57c0.2-0.6,0-1.3-0.5-1.7l-2.5-2.2C5.1,52.6,5,51.7,5.4,51L7,48.1c0.3-0.6,0.3-1.2-0.1-1.8l-1.8-2.8
		c-0.4-0.7-0.4-1.5,0.2-2.1l2.3-2.4C8,38.7,8.2,38,8,37.4l-1.1-3.1c-0.3-0.7,0-1.6,0.7-2l2.8-1.7c0.5-0.3,0.8-0.9,0.8-1.6L11,25.6
		c-0.1-0.8,0.4-1.5,1.2-1.7l3.2-1c0.6-0.2,1.1-0.7,1.2-1.3l0.6-3.3c0.1-0.8,0.8-1.4,1.6-1.4l3.3-0.2c0.6,0,1.2-0.4,1.5-1l1.4-3
		c0.3-0.7,1.1-1.1,1.9-1l3.3,0.7c0.6,0.1,1.3-0.1,1.7-0.6l2.1-2.6c0.5-0.6,1.3-0.8,2.1-0.5l3,1.5c0.6,0.3,1.2,0.2,1.8-0.2l2.7-2
		c0.6-0.5,1.5-0.4,2.1,0.1l2.5,2.2c0.5,0.4,1.2,0.5,1.7,0.3l3.1-1.3c0.7-0.3,1.6-0.1,2,0.6l1.9,2.7c0.4,0.5,1,0.8,1.6,0.7l3.3-0.5
		c0.8-0.1,1.5,0.3,1.8,1.1l1.2,3.1c0.2,0.6,0.8,1,1.4,1.1l3.3,0.4c0.8,0.1,1.4,0.7,1.5,1.5l0.4,3.3c0.1,0.6,0.5,1.2,1.1,1.4l3.1,1.2
		c0.7,0.3,1.2,1,1.1,1.8l-0.5,3.3c-0.1,0.6,0.2,1.3,0.7,1.6l2.7,1.9c0.6,0.5,0.9,1.3,0.6,2l-1.3,3.1c-0.2,0.6-0.1,1.3,0.3,1.7
		l2.2,2.5c0.5,0.6,0.5,1.5,0.1,2.1l-2,2.7c-0.4,0.5-0.4,1.2-0.2,1.8l1.5,3c0.3,0.7,0.2,1.6-0.5,2.1l-2.6,2.1c-0.5,0.4-0.7,1-0.6,1.7
		l0.7,3.3c0.2,0.8-0.2,1.6-1,1.9l-3,1.4c-0.6,0.3-1,0.8-1,1.5l-0.2,3.3c0,0.8-0.6,1.4-1.4,1.6l-3.3,0.6c-0.6,0.1-1.1,0.6-1.3,1.2
		l-1,3.2C65.1,77.6,64.4,78.1,63.6,78z"/>
	<path class="st4" d="M59.5,71.6l-2.7-0.2c-0.5,0-1,0.2-1.3,0.6l-1.4,2.3c-0.3,0.5-1,0.8-1.6,0.6l-2.5-0.9c-0.5-0.2-1,0-1.4,0.3
		l-1.9,1.9c-0.5,0.4-1.2,0.5-1.7,0.2l-2.2-1.5c-0.4-0.3-1-0.3-1.4,0l-2.3,1.3c-0.5,0.3-1.2,0.2-1.7-0.3l-1.8-2
		c-0.3-0.4-0.9-0.5-1.4-0.4l-2.6,0.7c-0.6,0.2-1.3-0.1-1.6-0.7L29,71.3c-0.2-0.4-0.7-0.7-1.2-0.7l-2.7,0c-0.6,0-1.2-0.4-1.3-1
		L23.1,67c-0.1-0.5-0.5-0.9-1-1l-2.6-0.6c-0.6-0.1-1-0.7-1-1.3l0-2.7c0-0.5-0.3-1-0.7-1.2l-2.4-1.2c-0.6-0.3-0.8-0.9-0.7-1.5
		l0.7-2.6c0.1-0.5,0-1-0.4-1.4l-2-1.8c-0.5-0.4-0.6-1.1-0.3-1.7l1.3-2.3c0.2-0.4,0.2-1,0-1.4l-1.5-2.2c-0.3-0.5-0.3-1.2,0.2-1.7
		l1.8-1.9c0.4-0.4,0.5-0.9,0.3-1.4l-0.9-2.5c-0.2-0.6,0-1.3,0.6-1.6l2.3-1.4c0.4-0.3,0.7-0.8,0.6-1.3l-0.2-2.7
		c-0.1-0.6,0.3-1.2,0.9-1.4l2.5-0.8c0.5-0.2,0.8-0.6,0.9-1.1l0.5-2.6c0.1-0.6,0.6-1.1,1.3-1.1l2.7-0.1c0.5,0,1-0.3,1.2-0.8l1.1-2.4
		c0.3-0.6,0.9-0.9,1.5-0.8l2.6,0.5c0.5,0.1,1-0.1,1.3-0.5l1.7-2.1c0.4-0.5,1.1-0.6,1.6-0.4l2.4,1.2c0.5,0.2,1,0.2,1.4-0.1l2.1-1.6
		c0.5-0.4,1.2-0.4,1.7,0l2,1.7c0.4,0.3,0.9,0.4,1.4,0.2l2.5-1c0.6-0.2,1.3,0,1.6,0.5l1.5,2.2c0.3,0.4,0.8,0.6,1.3,0.6l2.6-0.4
		c0.6-0.1,1.2,0.3,1.5,0.9l1,2.5c0.2,0.5,0.6,0.8,1.1,0.9l2.6,0.3c0.6,0.1,1.1,0.6,1.2,1.2l0.3,2.6c0.1,0.5,0.4,0.9,0.9,1.1l2.5,0.9
		c0.6,0.2,0.9,0.8,0.9,1.5l-0.4,2.6c-0.1,0.5,0.1,1,0.6,1.3l2.2,1.5c0.5,0.4,0.7,1,0.5,1.6l-1,2.5c-0.2,0.5-0.1,1,0.2,1.4l1.7,2
		c0.4,0.5,0.4,1.2,0.1,1.7L71.9,48c-0.3,0.4-0.4,0.9-0.1,1.4l1.2,2.4c0.3,0.6,0.1,1.3-0.4,1.6l-2.1,1.7c-0.4,0.3-0.6,0.8-0.5,1.3
		l0.5,2.6c0.1,0.6-0.2,1.2-0.8,1.5l-2.4,1.1c-0.5,0.2-0.8,0.7-0.8,1.2l-0.1,2.7c0,0.6-0.5,1.2-1.1,1.3l-2.6,0.5
		c-0.5,0.1-0.9,0.5-1.1,0.9l-0.8,2.5C60.7,71.3,60.2,71.7,59.5,71.6z"/>
	<path class="st1" d="M56.3,66.6l-2.1-0.2c-0.4,0-0.8,0.2-1,0.5L52,68.8c-0.3,0.4-0.8,0.6-1.3,0.5l-2-0.7c-0.4-0.1-0.8,0-1.1,0.3
		l-1.5,1.5c-0.4,0.4-0.9,0.4-1.4,0.1l-1.8-1.2c-0.3-0.2-0.8-0.2-1.1,0l-1.9,1.1c-0.4,0.3-1,0.2-1.3-0.2l-1.5-1.6
		c-0.3-0.3-0.7-0.4-1.1-0.3L34,68.8c-0.5,0.1-1-0.1-1.2-0.5l-1-1.9c-0.2-0.4-0.6-0.6-1-0.6l-2.1,0c-0.5,0-1-0.3-1.1-0.8L27,62.9
		c-0.1-0.4-0.4-0.7-0.8-0.8l-2.1-0.5c-0.5-0.1-0.8-0.6-0.8-1.1l0-2.1c0-0.4-0.2-0.8-0.6-1l-1.9-1c-0.5-0.2-0.7-0.8-0.5-1.2l0.6-2.1
		c0.1-0.4,0-0.8-0.3-1.1l-1.6-1.4c-0.4-0.3-0.5-0.9-0.2-1.3l1.1-1.9c0.2-0.4,0.2-0.8,0-1.1l-1.2-1.8c-0.3-0.4-0.2-1,0.1-1.4l1.5-1.5
		c0.3-0.3,0.4-0.7,0.2-1.1l-0.7-2c-0.2-0.5,0-1,0.5-1.3L22,36c0.3-0.2,0.5-0.6,0.5-1l-0.2-2.1c0-0.5,0.3-1,0.8-1.1l2-0.6
		c0.4-0.1,0.7-0.5,0.7-0.9l0.4-2.1c0.1-0.5,0.5-0.9,1-0.9l2.1-0.1c0.4,0,0.8-0.3,0.9-0.6l0.9-2c0.2-0.5,0.7-0.7,1.2-0.6l2.1,0.4
		c0.4,0.1,0.8-0.1,1.1-0.4l1.3-1.7c0.3-0.4,0.9-0.5,1.3-0.3l1.9,0.9c0.4,0.2,0.8,0.1,1.1-0.1l1.7-1.3c0.4-0.3,1-0.3,1.4,0l1.6,1.4
		c0.3,0.3,0.7,0.3,1.1,0.2l2-0.8c0.5-0.2,1,0,1.3,0.4l1.2,1.8c0.2,0.3,0.6,0.5,1,0.4l2.1-0.3c0.5-0.1,1,0.2,1.2,0.7l0.8,2
		c0.1,0.4,0.5,0.6,0.9,0.7l2.1,0.2c0.5,0.1,0.9,0.5,1,1l0.2,2.1c0,0.4,0.3,0.8,0.7,0.9l2,0.8c0.5,0.2,0.8,0.7,0.7,1.2l-0.3,2.1
		c-0.1,0.4,0.1,0.8,0.5,1l1.8,1.2c0.4,0.3,0.6,0.8,0.4,1.3l-0.8,2c-0.2,0.4-0.1,0.8,0.2,1.1l1.4,1.6c0.3,0.4,0.4,1,0,1.4l-1.3,1.7
		c-0.2,0.3-0.3,0.8-0.1,1.1l0.9,1.9c0.2,0.5,0.1,1-0.3,1.3l-1.7,1.3c-0.3,0.3-0.5,0.7-0.4,1.1l0.4,2.1c0.1,0.5-0.2,1-0.6,1.2l-2,0.9
		c-0.4,0.2-0.6,0.5-0.6,0.9l-0.1,2.1c0,0.5-0.4,0.9-0.9,1l-2.1,0.4c-0.4,0.1-0.7,0.4-0.9,0.8l-0.6,2.1
		C57.3,66.4,56.8,66.7,56.3,66.6z"/>
	<polygon class="st4" points="43.7,32.1 47,42.3 57.6,42.3 49,48.5 52.3,58.6 43.7,52.4 35.1,58.6 38.4,48.5 29.8,42.3 40.4,42.3 	
		"/>
</g>
</svg>
