<?xml version="1.0" encoding="utf-8"?>
<!-- Generator: Adobe Illustrator 21.0.2, SVG Export Plug-In . SVG Version: 6.00 Build 0)  -->
<svg version="1.1" id="Layer_1" xmlns="http://www.w3.org/2000/svg" xmlns:xlink="http://www.w3.org/1999/xlink" x="0px" y="0px"
	 viewBox="0 0 458 72" style="enable-background:new 0 0 458 72;" xml:space="preserve">
<style type="text/css">
	.st0{fill:#B42126;}
	.st1{fill:#89181C;}
	.st2{fill:#CC2128;}
	.st3{fill:#FFFFFF;}
</style>
<g>
	<polygon class="st0" points="0,20 112.9,20 112.9,71.7 0,71.7 24.8,45.8 	"/>
	<polygon class="st1" points="112.9,71.7 61.6,52 61.6,0 112.9,19.7 	"/>
	<polygon class="st0" points="458.3,20 345.4,20 345.4,71.7 458.3,71.7 433.5,45.8 	"/>
	<polygon class="st1" points="345.4,71.7 396.7,52 396.7,0 345.4,19.7 	"/>
	<rect x="61.6" class="st2" width="335.2" height="52"/>
</g>
<polygon class="st3" points="80,17.3 82.3,24.5 89.9,24.5 83.8,29 86.1,36.2 80,30.7 73.8,36.2 76.2,29 70,24.5 77.6,24.5 "/>
<polygon class="st3" points="379,17.3 381.3,24.5 388.9,24.5 382.8,29 385.1,36.2 379,31.7 372.8,36.2 375.2,29 369,24.5 
	376.6,24.5 "/>
</svg>
